<svg width="1695" height="979" viewBox="0 0 1695 979" fill="none" xmlns="http://www.w3.org/2000/svg">
<g clip-path="url(#clip0)">
<rect width="1695" height="979" fill="#2C856B"/>
<g filter="url(#filter0_d)">
<rect x="309" y="107" width="474.828" height="900.994" rx="40" fill="#503850"/>
</g>
<g filter="url(#filter1_d)">
<rect x="895" y="-144" width="474.828" height="900.994" rx="40" fill="#503850"/>
</g>
<g filter="url(#filter2_d)">
<rect x="323.746" y="107" width="474.828" height="900.994" rx="40" fill="white"/>
</g>
<g filter="url(#filter3_d)">
<rect x="909.746" y="-144" width="474.828" height="900.994" rx="40" fill="white"/>
</g>
<rect x="396" y="557" width="227" height="28" rx="14" fill="#876789"/>
<rect x="982" y="315" width="206" height="28" rx="14" fill="#876789"/>
<rect x="396" y="195" width="329.653" height="341.964" fill="#503850"/>
<rect x="982" y="-56" width="329.653" height="341.964" fill="#503850"/>
<path fill-rule="evenodd" clip-rule="evenodd" d="M726 585.5C726 606.763 708.763 624 687.5 624C666.237 624 649 606.763 649 585.5C649 564.237 666.237 547 687.5 547C708.763 547 726 564.237 726 585.5ZM701.077 586.542L679.68 598.896C678.877 599.359 677.875 598.78 677.875 597.854V573.146C677.875 572.22 678.877 571.641 679.68 572.104L701.077 584.458C701.88 584.921 701.88 586.079 701.077 586.542Z" fill="#503750"/>
<path fill-rule="evenodd" clip-rule="evenodd" d="M1312 334.5C1312 355.763 1294.76 373 1273.5 373C1252.24 373 1235 355.763 1235 334.5C1235 313.237 1252.24 296 1273.5 296C1294.76 296 1312 313.237 1312 334.5ZM1287.08 335.542L1265.68 347.896C1264.88 348.359 1263.88 347.78 1263.88 346.854V322.146C1263.88 321.22 1264.88 320.641 1265.68 321.104L1287.08 333.458C1287.88 333.921 1287.88 335.079 1287.08 335.542Z" fill="#503750"/>
<path d="M378.338 67.06C378.338 62.58 381.474 60.452 384.526 60.452C387.606 60.452 390.742 62.58 390.742 67.06C390.742 71.54 387.606 73.668 384.526 73.668C381.474 73.668 378.338 71.54 378.338 67.06ZM374.334 67.088C374.334 73.472 379.15 77.42 384.526 77.42C389.93 77.42 394.746 73.472 394.746 67.088C394.746 60.676 389.93 56.728 384.526 56.728C379.15 56.728 374.334 60.676 374.334 67.088ZM417.946 77V57.148H414.082V70.28L405.822 57.148H401.006V77H404.87V62.916L413.886 77H417.946ZM438.716 73.416V60.732H441.824C445.072 60.732 447.76 62.776 447.76 67.088C447.76 71.4 445.044 73.416 441.796 73.416H438.716ZM441.936 77C447.592 77 451.764 73.36 451.764 67.088C451.764 60.816 447.62 57.148 441.964 57.148H434.852V77H441.936ZM470.537 77V73.36H461.969V68.768H469.725V65.324H461.969V60.788H470.537V57.148H458.105V77H470.537ZM499.268 77V57.148H494.004L488.18 71.484L482.216 57.148H477.12V77H480.816V63.196L486.528 77H489.748L495.46 63.084V77H499.268ZM520.101 77H524.301L516.741 57.148H512.261L504.645 77H508.733L510.385 72.464H518.449L520.101 77ZM514.417 61.432L517.161 68.936H511.673L514.417 61.432ZM546.636 77V57.148H542.772V70.28L534.512 57.148H529.696V77H533.56V62.916L542.576 77H546.636ZM557.962 73.416V60.732H561.07C564.318 60.732 567.006 62.776 567.006 67.088C567.006 71.4 564.29 73.416 561.042 73.416H557.962ZM561.182 77C566.838 77 571.01 73.36 571.01 67.088C571.01 60.816 566.866 57.148 561.21 57.148H554.098V77H561.182ZM590.687 66.192V60.508H593.739C595.671 60.508 596.847 61.6 596.847 63.364C596.847 65.072 595.671 66.192 593.739 66.192H590.687ZM594.215 69.524C598.135 69.524 600.739 66.948 600.739 63.336C600.739 59.752 598.135 57.148 594.215 57.148H586.795V77H590.659V69.524H594.215ZM619.261 77V73.304H610.413V57.148H606.549V77H619.261ZM638.209 77H642.409L634.849 57.148H630.369L622.753 77H626.841L628.493 72.464H636.557L638.209 77ZM632.525 61.432L635.269 68.936H629.781L632.525 61.432ZM650.573 68.656V77H654.437V68.656L661.437 57.148H657.097L652.645 65.016L648.193 57.148H643.657L650.573 68.656ZM666.874 57.148V77H674.546C678.27 77 680.678 74.676 680.678 71.456C680.678 68.992 679.11 67.228 677.178 66.752C678.83 66.192 680.062 64.54 680.062 62.496C680.062 59.416 677.878 57.148 674.014 57.148H666.874ZM670.682 65.352V60.396H673.398C675.274 60.396 676.254 61.348 676.254 62.86C676.254 64.372 675.19 65.352 673.426 65.352H670.682ZM670.682 73.78V68.544H673.874C675.806 68.544 676.814 69.636 676.814 71.204C676.814 72.8 675.694 73.78 673.818 73.78H670.682ZM700.066 77H704.266L696.706 57.148H692.226L684.61 77H688.698L690.35 72.464H698.414L700.066 77ZM694.382 61.432L697.126 68.936H691.638L694.382 61.432ZM717.884 77.42C723.456 77.42 726.312 73.724 727.068 70.672L723.456 69.58C722.924 71.428 721.272 73.64 717.884 73.64C714.692 73.64 711.724 71.316 711.724 67.088C711.724 62.58 714.86 60.452 717.828 60.452C721.272 60.452 722.812 62.552 723.288 64.456L726.928 63.308C726.144 60.088 723.316 56.728 717.828 56.728C712.508 56.728 707.72 60.76 707.72 67.088C707.72 73.416 712.34 77.42 717.884 77.42ZM744.956 77H749.8L741.876 65.8L749.744 57.148H744.676L736.724 66.136V57.148H732.86V77H736.724V71.484L739.188 68.768L744.956 77Z" fill="white"/>
<path d="M1005.34 792.88C1004.89 790.64 1003.04 787.728 998.226 787.728C994.474 787.728 991.31 790.416 991.31 793.944C991.31 796.94 993.354 798.984 996.518 799.628L999.29 800.188C1000.83 800.496 1001.7 801.392 1001.7 802.54C1001.7 803.94 1000.55 804.976 998.478 804.976C995.678 804.976 994.306 803.212 994.138 801.252L990.554 802.204C990.862 805.032 993.186 808.42 998.45 808.42C1003.07 808.42 1005.62 805.34 1005.62 802.288C1005.62 799.488 1003.69 797.136 1000.07 796.436L997.302 795.904C995.846 795.624 995.146 794.756 995.146 793.664C995.146 792.348 996.378 791.144 998.254 791.144C1000.77 791.144 1001.67 792.852 1001.87 793.944L1005.34 792.88ZM1028.28 808V788.148H1024.39V796.128H1015.74V788.148H1011.87V808H1015.74V799.768H1024.39V808H1028.28ZM1043.17 808.448C1047.43 808.448 1050.82 805.844 1050.82 800.972V788.148H1046.95V800.692C1046.95 803.296 1045.53 804.668 1043.17 804.668C1040.88 804.668 1039.42 803.296 1039.42 800.692V788.148H1035.56V800.972C1035.56 805.844 1038.95 808.448 1043.17 808.448ZM1062 808V800.272H1069.7V796.716H1061.97V791.816H1070.65V788.148H1058.1V808H1062ZM1080.74 808V800.272H1088.44V796.716H1080.71V791.816H1089.39V788.148H1076.85V808H1080.74ZM1108.3 808V804.304H1099.45V788.148H1095.59V808H1108.3ZM1126.3 808V804.36H1117.73V799.768H1125.48V796.324H1117.73V791.788H1126.3V788.148H1113.86V808H1126.3ZM1146.22 797.192V791.508H1149.27C1151.2 791.508 1152.38 792.6 1152.38 794.364C1152.38 796.072 1151.2 797.192 1149.27 797.192H1146.22ZM1149.74 800.524C1153.66 800.524 1156.27 797.948 1156.27 794.336C1156.27 790.752 1153.66 788.148 1149.74 788.148H1142.32V808H1146.19V800.524H1149.74ZM1174.79 808V804.304H1165.94V788.148H1162.08V808H1174.79ZM1193.74 808H1197.94L1190.38 788.148H1185.9L1178.28 808H1182.37L1184.02 803.464H1192.09L1193.74 808ZM1188.05 792.432L1190.8 799.936H1185.31L1188.05 792.432ZM1206.1 799.656V808H1209.97V799.656L1216.97 788.148H1212.63L1208.17 796.016L1203.72 788.148H1199.19L1206.1 799.656ZM1222.4 788.148V808H1230.07C1233.8 808 1236.21 805.676 1236.21 802.456C1236.21 799.992 1234.64 798.228 1232.71 797.752C1234.36 797.192 1235.59 795.54 1235.59 793.496C1235.59 790.416 1233.41 788.148 1229.54 788.148H1222.4ZM1226.21 796.352V791.396H1228.93C1230.8 791.396 1231.78 792.348 1231.78 793.86C1231.78 795.372 1230.72 796.352 1228.95 796.352H1226.21ZM1226.21 804.78V799.544H1229.4C1231.33 799.544 1232.34 800.636 1232.34 802.204C1232.34 803.8 1231.22 804.78 1229.35 804.78H1226.21ZM1255.59 808H1259.79L1252.23 788.148H1247.75L1240.14 808H1244.23L1245.88 803.464H1253.94L1255.59 808ZM1249.91 792.432L1252.65 799.936H1247.17L1249.91 792.432ZM1273.41 808.42C1278.98 808.42 1281.84 804.724 1282.6 801.672L1278.98 800.58C1278.45 802.428 1276.8 804.64 1273.41 804.64C1270.22 804.64 1267.25 802.316 1267.25 798.088C1267.25 793.58 1270.39 791.452 1273.36 791.452C1276.8 791.452 1278.34 793.552 1278.82 795.456L1282.46 794.308C1281.67 791.088 1278.84 787.728 1273.36 787.728C1268.04 787.728 1263.25 791.76 1263.25 798.088C1263.25 804.416 1267.87 808.42 1273.41 808.42ZM1300.48 808H1305.33L1297.4 796.8L1305.27 788.148H1300.2L1292.25 797.136V788.148H1288.39V808H1292.25V802.484L1294.72 799.768L1300.48 808Z" fill="white"/>
<path d="M951.44 417V411.48H956.94V408.94H951.42V405.44H957.62V402.82H948.66V417H951.44ZM970.927 417V414.4H964.807V411.12H970.347V408.66H964.807V405.42H970.927V402.82H962.047V417H970.927ZM985.189 417H988.189L982.789 402.82H979.589L974.149 417H977.069L978.249 413.76H984.009L985.189 417ZM981.129 405.88L983.089 411.24H979.169L981.129 405.88ZM1001.06 405.44V402.82H989.316V405.44H993.796V417H996.576V405.44H1001.06ZM1010.36 417.32C1013.4 417.32 1015.82 415.46 1015.82 411.98V402.82H1013.06V411.78C1013.06 413.64 1012.04 414.62 1010.36 414.62C1008.72 414.62 1007.68 413.64 1007.68 411.78V402.82H1004.92V411.98C1004.92 415.46 1007.34 417.32 1010.36 417.32ZM1028.02 417H1031.1L1028.06 411.2C1029.92 410.66 1031.08 409.16 1031.08 407.18C1031.08 404.72 1029.32 402.82 1026.56 402.82H1021.02V417H1023.8V411.54H1025.24L1028.02 417ZM1023.8 409.16V405.22H1026.04C1027.44 405.22 1028.26 406 1028.26 407.2C1028.26 408.36 1027.44 409.16 1026.04 409.16H1023.8ZM1038.42 417V402.82H1035.62V417H1038.42ZM1055.83 417V402.82H1053.07V412.2L1047.17 402.82H1043.73V417H1046.49V406.94L1052.93 417H1055.83ZM1074 417V409.62H1066.92V412.02H1071.4C1071.24 413.02 1070.22 414.78 1067.6 414.78C1065.22 414.78 1063.12 413.12 1063.12 409.92C1063.12 406.56 1065.44 405.1 1067.58 405.1C1069.88 405.1 1071.06 406.56 1071.42 407.82L1074.06 406.88C1073.36 404.7 1071.3 402.52 1067.58 402.52C1063.74 402.52 1060.32 405.34 1060.32 409.92C1060.32 414.5 1063.58 417.3 1067.4 417.3C1069.54 417.3 1070.94 416.34 1071.58 415.38L1071.76 417H1074Z" fill="#503850"/>
<path d="M961.025 459H964.775L958.025 441.275H954.025L947.225 459H950.875L952.35 454.95H959.55L961.025 459ZM955.95 445.1L958.4 451.8H953.5L955.95 445.1ZM974.218 446.65C973.968 446.625 973.718 446.6 973.443 446.6C972.393 446.6 970.693 446.9 969.943 448.525V446.7H966.718V459H970.043V453.375C970.043 450.725 971.518 449.9 973.218 449.9C973.518 449.9 973.843 449.925 974.218 450V446.65ZM980.735 443.025H977.735V444.75C977.735 445.85 977.135 446.7 975.835 446.7H975.21V449.65H977.435V455.375C977.435 457.75 978.935 459.175 981.335 459.175C982.31 459.175 982.91 459 983.21 458.875V456.125C983.035 456.175 982.585 456.225 982.185 456.225C981.235 456.225 980.735 455.875 980.735 454.8V449.65H983.21V446.7H980.735V443.025ZM989.208 459V446.7H985.883V459H989.208ZM985.483 442.675C985.483 443.775 986.408 444.7 987.533 444.7C988.683 444.7 989.583 443.775 989.583 442.675C989.583 441.525 988.683 440.6 987.533 440.6C986.408 440.6 985.483 441.525 985.483 442.675ZM991.771 455.575C991.921 456.975 993.196 459.375 996.896 459.375C1000.12 459.375 1001.67 457.325 1001.67 455.325C1001.67 453.525 1000.45 452.05 998.021 451.55L996.271 451.175C995.596 451.05 995.146 450.675 995.146 450.075C995.146 449.375 995.846 448.85 996.721 448.85C998.121 448.85 998.646 449.775 998.746 450.5L1001.52 449.875C1001.37 448.55 1000.2 446.325 996.696 446.325C994.046 446.325 992.096 448.15 992.096 450.35C992.096 452.075 993.171 453.5 995.546 454.025L997.171 454.4C998.121 454.6 998.496 455.05 998.496 455.6C998.496 456.25 997.971 456.825 996.871 456.825C995.421 456.825 994.696 455.925 994.621 454.95L991.771 455.575ZM1008.69 443.025H1005.69V444.75C1005.69 445.85 1005.09 446.7 1003.79 446.7H1003.16V449.65H1005.39V455.375C1005.39 457.75 1006.89 459.175 1009.29 459.175C1010.26 459.175 1010.86 459 1011.16 458.875V456.125C1010.99 456.175 1010.54 456.225 1010.14 456.225C1009.19 456.225 1008.69 455.875 1008.69 454.8V449.65H1011.16V446.7H1008.69V443.025ZM1023.09 451.925C1023.09 450.5 1023.94 449.375 1025.39 449.375C1026.99 449.375 1027.67 450.45 1027.67 451.825V459H1030.99V451.25C1030.99 448.55 1029.59 446.375 1026.54 446.375C1025.22 446.375 1023.74 446.95 1022.99 448.225V446.7H1019.77V459H1023.09V451.925ZM1033.55 455.65C1033.55 457.575 1035.15 459.35 1037.77 459.35C1039.6 459.35 1040.77 458.5 1041.4 457.525C1041.4 458 1041.45 458.675 1041.52 459H1044.57C1044.5 458.575 1044.42 457.7 1044.42 457.05V451C1044.42 448.525 1042.97 446.325 1039.07 446.325C1035.77 446.325 1034 448.45 1033.8 450.375L1036.75 451C1036.85 449.925 1037.65 449 1039.1 449C1040.5 449 1041.17 449.725 1041.17 450.6C1041.17 451.025 1040.95 451.375 1040.25 451.475L1037.22 451.925C1035.17 452.225 1033.55 453.45 1033.55 455.65ZM1038.47 456.875C1037.4 456.875 1036.87 456.175 1036.87 455.45C1036.87 454.5 1037.55 454.025 1038.4 453.9L1041.17 453.475V454.025C1041.17 456.2 1039.87 456.875 1038.47 456.875ZM1051.05 459V451.8C1051.05 450.45 1051.9 449.375 1053.35 449.375C1054.85 449.375 1055.52 450.375 1055.52 451.7V459H1058.82V451.8C1058.82 450.475 1059.67 449.375 1061.1 449.375C1062.62 449.375 1063.27 450.375 1063.27 451.7V459H1066.5V451.025C1066.5 447.725 1064.32 446.35 1062.05 446.35C1060.42 446.35 1059.12 446.9 1058.15 448.4C1057.52 447.075 1056.17 446.35 1054.5 446.35C1053.15 446.35 1051.57 447 1050.9 448.2V446.7H1047.72V459H1051.05ZM1072.37 451.45C1072.44 450.325 1073.39 449.025 1075.12 449.025C1077.02 449.025 1077.82 450.225 1077.87 451.45H1072.37ZM1078.19 454.65C1077.79 455.75 1076.94 456.525 1075.39 456.525C1073.74 456.525 1072.37 455.35 1072.29 453.725H1081.09C1081.09 453.675 1081.14 453.175 1081.14 452.7C1081.14 448.75 1078.87 446.325 1075.07 446.325C1071.92 446.325 1069.02 448.875 1069.02 452.8C1069.02 456.95 1071.99 459.375 1075.37 459.375C1078.39 459.375 1080.34 457.6 1080.97 455.475L1078.19 454.65Z" fill="#503850"/>
<path d="M1101.91 445.3C1101.51 443.375 1099.91 440.9 1095.91 440.9C1092.63 440.9 1090.06 443.4 1090.06 446.175C1090.06 448.825 1091.86 450.475 1094.38 451.025L1096.91 451.575C1098.68 451.95 1099.56 453.05 1099.56 454.325C1099.56 455.875 1098.36 457.15 1095.91 457.15C1093.23 457.15 1091.83 455.325 1091.66 453.35L1089.31 454.1C1089.63 456.625 1091.66 459.375 1095.93 459.375C1099.71 459.375 1102.06 456.875 1102.06 454.125C1102.06 451.65 1100.41 449.8 1097.46 449.15L1094.81 448.575C1093.31 448.25 1092.53 447.275 1092.53 446C1092.53 444.35 1093.96 443.05 1095.96 443.05C1098.43 443.05 1099.51 444.8 1099.71 446.075L1101.91 445.3ZM1110.5 457.275C1108.5 457.275 1106.75 455.775 1106.75 452.975C1106.75 450.2 1108.5 448.7 1110.5 448.7C1112.5 448.7 1114.25 450.2 1114.25 452.975C1114.25 455.775 1112.5 457.275 1110.5 457.275ZM1110.5 446.6C1106.9 446.6 1104.35 449.325 1104.35 452.975C1104.35 456.65 1106.9 459.375 1110.5 459.375C1114.1 459.375 1116.65 456.65 1116.65 452.975C1116.65 449.325 1114.1 446.6 1110.5 446.6ZM1122 452.05C1122 450.225 1122.95 448.75 1124.8 448.75C1126.9 448.75 1127.6 450.1 1127.6 451.775V459H1129.95V451.375C1129.95 448.7 1128.53 446.625 1125.65 446.625C1124.25 446.625 1122.83 447.2 1121.95 448.7V446.975H1119.65V459H1122V452.05ZM1132.82 459.65C1133.12 462.225 1135.37 464.125 1138.37 464.125C1142.89 464.125 1144.39 461.15 1144.39 458.1V446.975H1142.07V448.65C1141.47 447.45 1140.22 446.75 1138.37 446.75C1135.07 446.75 1132.84 449.35 1132.84 452.6C1132.84 456 1135.17 458.425 1138.37 458.425C1140.17 458.425 1141.47 457.55 1142.04 456.45V458.175C1142.04 460.775 1140.89 462.075 1138.37 462.075C1136.54 462.075 1135.27 460.8 1135.09 459.125L1132.82 459.65ZM1138.72 456.45C1136.59 456.45 1135.24 454.95 1135.24 452.6C1135.24 450.275 1136.64 448.75 1138.72 448.75C1140.74 448.75 1142.14 450.275 1142.14 452.6C1142.14 454.925 1140.74 456.45 1138.72 456.45ZM1169.54 459V441.275H1167.09V454.875L1158.24 441.275H1154.97V459H1157.42V444.55L1166.99 459H1169.54ZM1172.81 455.775C1172.81 457.675 1174.38 459.375 1176.83 459.375C1178.98 459.375 1180.18 458.225 1180.71 457.375C1180.71 458.25 1180.78 458.7 1180.83 459H1183.13C1183.08 458.7 1182.98 458.075 1182.98 457.025V451C1182.98 448.65 1181.58 446.6 1177.98 446.6C1175.38 446.6 1173.31 448.2 1173.06 450.5L1175.31 451.025C1175.46 449.625 1176.38 448.6 1178.03 448.6C1179.86 448.6 1180.63 449.575 1180.63 450.75C1180.63 451.175 1180.43 451.55 1179.71 451.65L1176.46 452.125C1174.38 452.425 1172.81 453.625 1172.81 455.775ZM1177.16 457.4C1175.96 457.4 1175.21 456.55 1175.21 455.65C1175.21 454.575 1175.96 454 1176.96 453.85L1180.63 453.3V453.85C1180.63 456.475 1179.08 457.4 1177.16 457.4ZM1189.02 459V451.75C1189.02 449.95 1190.14 448.7 1191.82 448.7C1193.62 448.7 1194.37 449.9 1194.37 451.45V459H1196.72V451.725C1196.72 450 1197.84 448.7 1199.49 448.7C1201.27 448.7 1202.04 449.875 1202.04 451.45V459H1204.37V451.2C1204.37 448.05 1202.32 446.625 1200.22 446.625C1198.69 446.625 1197.14 447.175 1196.19 448.9C1195.54 447.35 1194.09 446.625 1192.59 446.625C1191.19 446.625 1189.69 447.25 1188.94 448.575V446.975H1186.69V459H1189.02ZM1209.73 451.75C1209.83 450.2 1211.03 448.675 1213.01 448.675C1215.13 448.675 1216.26 450.025 1216.31 451.75H1209.73ZM1216.66 454.875C1216.21 456.225 1215.23 457.3 1213.28 457.3C1211.26 457.3 1209.71 455.8 1209.66 453.65H1218.71C1218.73 453.5 1218.76 453.2 1218.76 452.9C1218.76 449.15 1216.68 446.6 1212.98 446.6C1209.96 446.6 1207.23 449.175 1207.23 452.95C1207.23 457.025 1210.06 459.375 1213.28 459.375C1216.08 459.375 1218.01 457.7 1218.68 455.575L1216.66 454.875ZM1227.18 453C1227.18 454.7 1228.58 456.1 1230.28 456.1C1231.98 456.1 1233.38 454.7 1233.38 453C1233.38 451.275 1231.98 449.875 1230.28 449.875C1228.58 449.875 1227.18 451.275 1227.18 453ZM1030.84 489.3C1030.44 487.375 1028.84 484.9 1024.84 484.9C1021.56 484.9 1018.99 487.4 1018.99 490.175C1018.99 492.825 1020.79 494.475 1023.31 495.025L1025.84 495.575C1027.61 495.95 1028.49 497.05 1028.49 498.325C1028.49 499.875 1027.29 501.15 1024.84 501.15C1022.16 501.15 1020.76 499.325 1020.59 497.35L1018.24 498.1C1018.56 500.625 1020.59 503.375 1024.86 503.375C1028.64 503.375 1030.99 500.875 1030.99 498.125C1030.99 495.65 1029.34 493.8 1026.39 493.15L1023.74 492.575C1022.24 492.25 1021.46 491.275 1021.46 490C1021.46 488.35 1022.89 487.05 1024.89 487.05C1027.36 487.05 1028.44 488.8 1028.64 490.075L1030.84 489.3ZM1039.43 501.275C1037.43 501.275 1035.68 499.775 1035.68 496.975C1035.68 494.2 1037.43 492.7 1039.43 492.7C1041.43 492.7 1043.18 494.2 1043.18 496.975C1043.18 499.775 1041.43 501.275 1039.43 501.275ZM1039.43 490.6C1035.83 490.6 1033.28 493.325 1033.28 496.975C1033.28 500.65 1035.83 503.375 1039.43 503.375C1043.03 503.375 1045.58 500.65 1045.58 496.975C1045.58 493.325 1043.03 490.6 1039.43 490.6ZM1050.93 496.05C1050.93 494.225 1051.88 492.75 1053.73 492.75C1055.83 492.75 1056.53 494.1 1056.53 495.775V503H1058.88V495.375C1058.88 492.7 1057.46 490.625 1054.58 490.625C1053.18 490.625 1051.76 491.2 1050.88 492.7V490.975H1048.58V503H1050.93V496.05ZM1061.75 503.65C1062.05 506.225 1064.3 508.125 1067.3 508.125C1071.82 508.125 1073.32 505.15 1073.32 502.1V490.975H1071V492.65C1070.4 491.45 1069.15 490.75 1067.3 490.75C1064 490.75 1061.77 493.35 1061.77 496.6C1061.77 500 1064.1 502.425 1067.3 502.425C1069.1 502.425 1070.4 501.55 1070.97 500.45V502.175C1070.97 504.775 1069.82 506.075 1067.3 506.075C1065.47 506.075 1064.2 504.8 1064.02 503.125L1061.75 503.65ZM1067.65 500.45C1065.52 500.45 1064.17 498.95 1064.17 496.6C1064.17 494.275 1065.57 492.75 1067.65 492.75C1069.67 492.75 1071.07 494.275 1071.07 496.6C1071.07 498.925 1069.67 500.45 1067.65 500.45ZM1098.47 503V485.275H1096.02V498.875L1087.17 485.275H1083.9V503H1086.35V488.55L1095.92 503H1098.47ZM1101.74 499.775C1101.74 501.675 1103.31 503.375 1105.76 503.375C1107.91 503.375 1109.11 502.225 1109.64 501.375C1109.64 502.25 1109.71 502.7 1109.76 503H1112.06C1112.01 502.7 1111.91 502.075 1111.91 501.025V495C1111.91 492.65 1110.51 490.6 1106.91 490.6C1104.31 490.6 1102.24 492.2 1101.99 494.5L1104.24 495.025C1104.39 493.625 1105.31 492.6 1106.96 492.6C1108.79 492.6 1109.56 493.575 1109.56 494.75C1109.56 495.175 1109.36 495.55 1108.64 495.65L1105.39 496.125C1103.31 496.425 1101.74 497.625 1101.74 499.775ZM1106.09 501.4C1104.89 501.4 1104.14 500.55 1104.14 499.65C1104.14 498.575 1104.89 498 1105.89 497.85L1109.56 497.3V497.85C1109.56 500.475 1108.01 501.4 1106.09 501.4ZM1117.95 503V495.75C1117.95 493.95 1119.07 492.7 1120.75 492.7C1122.55 492.7 1123.3 493.9 1123.3 495.45V503H1125.65V495.725C1125.65 494 1126.77 492.7 1128.42 492.7C1130.2 492.7 1130.97 493.875 1130.97 495.45V503H1133.3V495.2C1133.3 492.05 1131.25 490.625 1129.15 490.625C1127.62 490.625 1126.07 491.175 1125.12 492.9C1124.47 491.35 1123.02 490.625 1121.52 490.625C1120.12 490.625 1118.62 491.25 1117.87 492.575V490.975H1115.62V503H1117.95ZM1138.66 495.75C1138.76 494.2 1139.96 492.675 1141.94 492.675C1144.06 492.675 1145.19 494.025 1145.24 495.75H1138.66ZM1145.59 498.875C1145.14 500.225 1144.16 501.3 1142.21 501.3C1140.19 501.3 1138.64 499.8 1138.59 497.65H1147.64C1147.66 497.5 1147.69 497.2 1147.69 496.9C1147.69 493.15 1145.61 490.6 1141.91 490.6C1138.89 490.6 1136.16 493.175 1136.16 496.95C1136.16 501.025 1138.99 503.375 1142.21 503.375C1145.01 503.375 1146.94 501.7 1147.61 499.575L1145.59 498.875ZM1156.11 497C1156.11 498.7 1157.51 500.1 1159.21 500.1C1160.91 500.1 1162.31 498.7 1162.31 497C1162.31 495.275 1160.91 493.875 1159.21 493.875C1157.51 493.875 1156.11 495.275 1156.11 497ZM960.5 533.3C960.1 531.375 958.5 528.9 954.5 528.9C951.225 528.9 948.65 531.4 948.65 534.175C948.65 536.825 950.45 538.475 952.975 539.025L955.5 539.575C957.275 539.95 958.15 541.05 958.15 542.325C958.15 543.875 956.95 545.15 954.5 545.15C951.825 545.15 950.425 543.325 950.25 541.35L947.9 542.1C948.225 544.625 950.25 547.375 954.525 547.375C958.3 547.375 960.65 544.875 960.65 542.125C960.65 539.65 959 537.8 956.05 537.15L953.4 536.575C951.9 536.25 951.125 535.275 951.125 534C951.125 532.35 952.55 531.05 954.55 531.05C957.025 531.05 958.1 532.8 958.3 534.075L960.5 533.3ZM969.094 545.275C967.094 545.275 965.344 543.775 965.344 540.975C965.344 538.2 967.094 536.7 969.094 536.7C971.094 536.7 972.844 538.2 972.844 540.975C972.844 543.775 971.094 545.275 969.094 545.275ZM969.094 534.6C965.494 534.6 962.944 537.325 962.944 540.975C962.944 544.65 965.494 547.375 969.094 547.375C972.694 547.375 975.244 544.65 975.244 540.975C975.244 537.325 972.694 534.6 969.094 534.6ZM980.596 540.05C980.596 538.225 981.546 536.75 983.396 536.75C985.496 536.75 986.196 538.1 986.196 539.775V547H988.546V539.375C988.546 536.7 987.121 534.625 984.246 534.625C982.846 534.625 981.421 535.2 980.546 536.7V534.975H978.246V547H980.596V540.05ZM991.411 547.65C991.711 550.225 993.961 552.125 996.961 552.125C1001.49 552.125 1002.99 549.15 1002.99 546.1V534.975H1000.66V536.65C1000.06 535.45 998.811 534.75 996.961 534.75C993.661 534.75 991.436 537.35 991.436 540.6C991.436 544 993.761 546.425 996.961 546.425C998.761 546.425 1000.06 545.55 1000.64 544.45V546.175C1000.64 548.775 999.486 550.075 996.961 550.075C995.136 550.075 993.861 548.8 993.686 547.125L991.411 547.65ZM997.311 544.45C995.186 544.45 993.836 542.95 993.836 540.6C993.836 538.275 995.236 536.75 997.311 536.75C999.336 536.75 1000.74 538.275 1000.74 540.6C1000.74 542.925 999.336 544.45 997.311 544.45ZM1028.13 547V529.275H1025.68V542.875L1016.83 529.275H1013.56V547H1016.01V532.55L1025.58 547H1028.13ZM1031.4 543.775C1031.4 545.675 1032.98 547.375 1035.43 547.375C1037.58 547.375 1038.78 546.225 1039.3 545.375C1039.3 546.25 1039.38 546.7 1039.43 547H1041.73C1041.68 546.7 1041.58 546.075 1041.58 545.025V539C1041.58 536.65 1040.18 534.6 1036.58 534.6C1033.98 534.6 1031.9 536.2 1031.65 538.5L1033.9 539.025C1034.05 537.625 1034.98 536.6 1036.63 536.6C1038.45 536.6 1039.23 537.575 1039.23 538.75C1039.23 539.175 1039.03 539.55 1038.3 539.65L1035.05 540.125C1032.98 540.425 1031.4 541.625 1031.4 543.775ZM1035.75 545.4C1034.55 545.4 1033.8 544.55 1033.8 543.65C1033.8 542.575 1034.55 542 1035.55 541.85L1039.23 541.3V541.85C1039.23 544.475 1037.68 545.4 1035.75 545.4ZM1047.61 547V539.75C1047.61 537.95 1048.74 536.7 1050.41 536.7C1052.21 536.7 1052.96 537.9 1052.96 539.45V547H1055.31V539.725C1055.31 538 1056.44 536.7 1058.09 536.7C1059.86 536.7 1060.64 537.875 1060.64 539.45V547H1062.96V539.2C1062.96 536.05 1060.91 534.625 1058.81 534.625C1057.29 534.625 1055.74 535.175 1054.79 536.9C1054.14 535.35 1052.69 534.625 1051.19 534.625C1049.79 534.625 1048.29 535.25 1047.54 536.575V534.975H1045.29V547H1047.61ZM1068.32 539.75C1068.42 538.2 1069.62 536.675 1071.6 536.675C1073.72 536.675 1074.85 538.025 1074.9 539.75H1068.32ZM1075.25 542.875C1074.8 544.225 1073.82 545.3 1071.87 545.3C1069.85 545.3 1068.3 543.8 1068.25 541.65H1077.3C1077.32 541.5 1077.35 541.2 1077.35 540.9C1077.35 537.15 1075.27 534.6 1071.57 534.6C1068.55 534.6 1065.82 537.175 1065.82 540.95C1065.82 545.025 1068.65 547.375 1071.87 547.375C1074.67 547.375 1076.6 545.7 1077.27 543.575L1075.25 542.875ZM1085.77 541C1085.77 542.7 1087.17 544.1 1088.87 544.1C1090.57 544.1 1091.97 542.7 1091.97 541C1091.97 539.275 1090.57 537.875 1088.87 537.875C1087.17 537.875 1085.77 539.275 1085.77 541ZM1254.25 533.3C1253.85 531.375 1252.25 528.9 1248.25 528.9C1244.98 528.9 1242.4 531.4 1242.4 534.175C1242.4 536.825 1244.2 538.475 1246.73 539.025L1249.25 539.575C1251.03 539.95 1251.9 541.05 1251.9 542.325C1251.9 543.875 1250.7 545.15 1248.25 545.15C1245.58 545.15 1244.18 543.325 1244 541.35L1241.65 542.1C1241.98 544.625 1244 547.375 1248.28 547.375C1252.05 547.375 1254.4 544.875 1254.4 542.125C1254.4 539.65 1252.75 537.8 1249.8 537.15L1247.15 536.575C1245.65 536.25 1244.88 535.275 1244.88 534C1244.88 532.35 1246.3 531.05 1248.3 531.05C1250.78 531.05 1251.85 532.8 1252.05 534.075L1254.25 533.3ZM1262.84 545.275C1260.84 545.275 1259.09 543.775 1259.09 540.975C1259.09 538.2 1260.84 536.7 1262.84 536.7C1264.84 536.7 1266.59 538.2 1266.59 540.975C1266.59 543.775 1264.84 545.275 1262.84 545.275ZM1262.84 534.6C1259.24 534.6 1256.69 537.325 1256.69 540.975C1256.69 544.65 1259.24 547.375 1262.84 547.375C1266.44 547.375 1268.99 544.65 1268.99 540.975C1268.99 537.325 1266.44 534.6 1262.84 534.6ZM1274.35 540.05C1274.35 538.225 1275.3 536.75 1277.15 536.75C1279.25 536.75 1279.95 538.1 1279.95 539.775V547H1282.3V539.375C1282.3 536.7 1280.87 534.625 1278 534.625C1276.6 534.625 1275.17 535.2 1274.3 536.7V534.975H1272V547H1274.35V540.05ZM1285.16 547.65C1285.46 550.225 1287.71 552.125 1290.71 552.125C1295.24 552.125 1296.74 549.15 1296.74 546.1V534.975H1294.41V536.65C1293.81 535.45 1292.56 534.75 1290.71 534.75C1287.41 534.75 1285.19 537.35 1285.19 540.6C1285.19 544 1287.51 546.425 1290.71 546.425C1292.51 546.425 1293.81 545.55 1294.39 544.45V546.175C1294.39 548.775 1293.24 550.075 1290.71 550.075C1288.89 550.075 1287.61 548.8 1287.44 547.125L1285.16 547.65ZM1291.06 544.45C1288.94 544.45 1287.59 542.95 1287.59 540.6C1287.59 538.275 1288.99 536.75 1291.06 536.75C1293.09 536.75 1294.49 538.275 1294.49 540.6C1294.49 542.925 1293.09 544.45 1291.06 544.45ZM963.95 591V573.275H961.5V586.875L952.65 573.275H949.375V591H951.825V576.55L961.4 591H963.95ZM967.216 587.775C967.216 589.675 968.791 591.375 971.241 591.375C973.391 591.375 974.591 590.225 975.116 589.375C975.116 590.25 975.191 590.7 975.241 591H977.541C977.491 590.7 977.391 590.075 977.391 589.025V583C977.391 580.65 975.991 578.6 972.391 578.6C969.791 578.6 967.716 580.2 967.466 582.5L969.716 583.025C969.866 581.625 970.791 580.6 972.441 580.6C974.266 580.6 975.041 581.575 975.041 582.75C975.041 583.175 974.841 583.55 974.116 583.65L970.866 584.125C968.791 584.425 967.216 585.625 967.216 587.775ZM971.566 589.4C970.366 589.4 969.616 588.55 969.616 587.65C969.616 586.575 970.366 586 971.366 585.85L975.041 585.3V585.85C975.041 588.475 973.491 589.4 971.566 589.4ZM983.427 591V583.75C983.427 581.95 984.552 580.7 986.227 580.7C988.027 580.7 988.777 581.9 988.777 583.45V591H991.127V583.725C991.127 582 992.252 580.7 993.902 580.7C995.677 580.7 996.452 581.875 996.452 583.45V591H998.777V583.2C998.777 580.05 996.727 578.625 994.627 578.625C993.102 578.625 991.552 579.175 990.602 580.9C989.952 579.35 988.502 578.625 987.002 578.625C985.602 578.625 984.102 579.25 983.352 580.575V578.975H981.102V591H983.427ZM1004.14 583.75C1004.24 582.2 1005.44 580.675 1007.42 580.675C1009.54 580.675 1010.67 582.025 1010.72 583.75H1004.14ZM1011.07 586.875C1010.62 588.225 1009.64 589.3 1007.69 589.3C1005.67 589.3 1004.12 587.8 1004.07 585.65H1013.12C1013.14 585.5 1013.17 585.2 1013.17 584.9C1013.17 581.15 1011.09 578.6 1007.39 578.6C1004.37 578.6 1001.64 581.175 1001.64 584.95C1001.64 589.025 1004.47 591.375 1007.69 591.375C1010.49 591.375 1012.42 589.7 1013.09 587.575L1011.07 586.875ZM1021.59 585C1021.59 586.7 1022.99 588.1 1024.69 588.1C1026.39 588.1 1027.79 586.7 1027.79 585C1027.79 583.275 1026.39 581.875 1024.69 581.875C1022.99 581.875 1021.59 583.275 1021.59 585ZM1190.07 577.3C1189.67 575.375 1188.07 572.9 1184.07 572.9C1180.79 572.9 1178.22 575.4 1178.22 578.175C1178.22 580.825 1180.02 582.475 1182.54 583.025L1185.07 583.575C1186.84 583.95 1187.72 585.05 1187.72 586.325C1187.72 587.875 1186.52 589.15 1184.07 589.15C1181.39 589.15 1179.99 587.325 1179.82 585.35L1177.47 586.1C1177.79 588.625 1179.82 591.375 1184.09 591.375C1187.87 591.375 1190.22 588.875 1190.22 586.125C1190.22 583.65 1188.57 581.8 1185.62 581.15L1182.97 580.575C1181.47 580.25 1180.69 579.275 1180.69 578C1180.69 576.35 1182.12 575.05 1184.12 575.05C1186.59 575.05 1187.67 576.8 1187.87 578.075L1190.07 577.3ZM1198.66 589.275C1196.66 589.275 1194.91 587.775 1194.91 584.975C1194.91 582.2 1196.66 580.7 1198.66 580.7C1200.66 580.7 1202.41 582.2 1202.41 584.975C1202.41 587.775 1200.66 589.275 1198.66 589.275ZM1198.66 578.6C1195.06 578.6 1192.51 581.325 1192.51 584.975C1192.51 588.65 1195.06 591.375 1198.66 591.375C1202.26 591.375 1204.81 588.65 1204.81 584.975C1204.81 581.325 1202.26 578.6 1198.66 578.6ZM1210.16 584.05C1210.16 582.225 1211.11 580.75 1212.96 580.75C1215.06 580.75 1215.76 582.1 1215.76 583.775V591H1218.11V583.375C1218.11 580.7 1216.69 578.625 1213.81 578.625C1212.41 578.625 1210.99 579.2 1210.11 580.7V578.975H1207.81V591H1210.16V584.05ZM1220.98 591.65C1221.28 594.225 1223.53 596.125 1226.53 596.125C1231.05 596.125 1232.55 593.15 1232.55 590.1V578.975H1230.23V580.65C1229.63 579.45 1228.38 578.75 1226.53 578.75C1223.23 578.75 1221 581.35 1221 584.6C1221 588 1223.33 590.425 1226.53 590.425C1228.33 590.425 1229.63 589.55 1230.2 588.45V590.175C1230.2 592.775 1229.05 594.075 1226.53 594.075C1224.7 594.075 1223.43 592.8 1223.25 591.125L1220.98 591.65ZM1226.88 588.45C1224.75 588.45 1223.4 586.95 1223.4 584.6C1223.4 582.275 1224.8 580.75 1226.88 580.75C1228.9 580.75 1230.3 582.275 1230.3 584.6C1230.3 586.925 1228.9 588.45 1226.88 588.45ZM1257.7 591V573.275H1255.25V586.875L1246.4 573.275H1243.13V591H1245.58V576.55L1255.15 591H1257.7ZM1260.97 587.775C1260.97 589.675 1262.54 591.375 1264.99 591.375C1267.14 591.375 1268.34 590.225 1268.87 589.375C1268.87 590.25 1268.94 590.7 1268.99 591H1271.29C1271.24 590.7 1271.14 590.075 1271.14 589.025V583C1271.14 580.65 1269.74 578.6 1266.14 578.6C1263.54 578.6 1261.47 580.2 1261.22 582.5L1263.47 583.025C1263.62 581.625 1264.54 580.6 1266.19 580.6C1268.02 580.6 1268.79 581.575 1268.79 582.75C1268.79 583.175 1268.59 583.55 1267.87 583.65L1264.62 584.125C1262.54 584.425 1260.97 585.625 1260.97 587.775ZM1265.32 589.4C1264.12 589.4 1263.37 588.55 1263.37 587.65C1263.37 586.575 1264.12 586 1265.12 585.85L1268.79 585.3V585.85C1268.79 588.475 1267.24 589.4 1265.32 589.4ZM1277.18 591V583.75C1277.18 581.95 1278.3 580.7 1279.98 580.7C1281.78 580.7 1282.53 581.9 1282.53 583.45V591H1284.88V583.725C1284.88 582 1286 580.7 1287.65 580.7C1289.43 580.7 1290.2 581.875 1290.2 583.45V591H1292.53V583.2C1292.53 580.05 1290.48 578.625 1288.38 578.625C1286.85 578.625 1285.3 579.175 1284.35 580.9C1283.7 579.35 1282.25 578.625 1280.75 578.625C1279.35 578.625 1277.85 579.25 1277.1 580.575V578.975H1274.85V591H1277.18ZM1297.89 583.75C1297.99 582.2 1299.19 580.675 1301.17 580.675C1303.29 580.675 1304.42 582.025 1304.47 583.75H1297.89ZM1304.82 586.875C1304.37 588.225 1303.39 589.3 1301.44 589.3C1299.42 589.3 1297.87 587.8 1297.82 585.65H1306.87C1306.89 585.5 1306.92 585.2 1306.92 584.9C1306.92 581.15 1304.84 578.6 1301.14 578.6C1298.12 578.6 1295.39 581.175 1295.39 584.95C1295.39 589.025 1298.22 591.375 1301.44 591.375C1304.24 591.375 1306.17 589.7 1306.84 587.575L1304.82 586.875ZM1315.34 585C1315.34 586.7 1316.74 588.1 1318.44 588.1C1320.14 588.1 1321.54 586.7 1321.54 585C1321.54 583.275 1320.14 581.875 1318.44 581.875C1316.74 581.875 1315.34 583.275 1315.34 585Z" fill="#876789"/>
<path d="M1254.78 459H1258.53L1251.78 441.275H1247.78L1240.98 459H1244.63L1246.1 454.95H1253.3L1254.78 459ZM1249.7 445.1L1252.15 451.8H1247.25L1249.7 445.1ZM1267.97 446.65C1267.72 446.625 1267.47 446.6 1267.19 446.6C1266.14 446.6 1264.44 446.9 1263.69 448.525V446.7H1260.47V459H1263.79V453.375C1263.79 450.725 1265.27 449.9 1266.97 449.9C1267.27 449.9 1267.59 449.925 1267.97 450V446.65ZM1274.48 443.025H1271.48V444.75C1271.48 445.85 1270.88 446.7 1269.58 446.7H1268.96V449.65H1271.18V455.375C1271.18 457.75 1272.68 459.175 1275.08 459.175C1276.06 459.175 1276.66 459 1276.96 458.875V456.125C1276.78 456.175 1276.33 456.225 1275.93 456.225C1274.98 456.225 1274.48 455.875 1274.48 454.8V449.65H1276.96V446.7H1274.48V443.025ZM1282.96 459V446.7H1279.63V459H1282.96ZM1279.23 442.675C1279.23 443.775 1280.16 444.7 1281.28 444.7C1282.43 444.7 1283.33 443.775 1283.33 442.675C1283.33 441.525 1282.43 440.6 1281.28 440.6C1280.16 440.6 1279.23 441.525 1279.23 442.675ZM1285.52 455.575C1285.67 456.975 1286.95 459.375 1290.65 459.375C1293.87 459.375 1295.42 457.325 1295.42 455.325C1295.42 453.525 1294.2 452.05 1291.77 451.55L1290.02 451.175C1289.35 451.05 1288.9 450.675 1288.9 450.075C1288.9 449.375 1289.6 448.85 1290.47 448.85C1291.87 448.85 1292.4 449.775 1292.5 450.5L1295.27 449.875C1295.12 448.55 1293.95 446.325 1290.45 446.325C1287.8 446.325 1285.85 448.15 1285.85 450.35C1285.85 452.075 1286.92 453.5 1289.3 454.025L1290.92 454.4C1291.87 454.6 1292.25 455.05 1292.25 455.6C1292.25 456.25 1291.72 456.825 1290.62 456.825C1289.17 456.825 1288.45 455.925 1288.37 454.95L1285.52 455.575ZM1302.44 443.025H1299.44V444.75C1299.44 445.85 1298.84 446.7 1297.54 446.7H1296.91V449.65H1299.14V455.375C1299.14 457.75 1300.64 459.175 1303.04 459.175C1304.01 459.175 1304.61 459 1304.91 458.875V456.125C1304.74 456.175 1304.29 456.225 1303.89 456.225C1302.94 456.225 1302.44 455.875 1302.44 454.8V449.65H1304.91V446.7H1302.44V443.025ZM952.025 495.925C952.025 494.5 952.875 493.375 954.325 493.375C955.925 493.375 956.6 494.45 956.6 495.825V503H959.925V495.25C959.925 492.55 958.525 490.375 955.475 490.375C954.15 490.375 952.675 490.95 951.925 492.225V490.7H948.7V503H952.025V495.925ZM962.477 499.65C962.477 501.575 964.077 503.35 966.702 503.35C968.527 503.35 969.702 502.5 970.327 501.525C970.327 502 970.377 502.675 970.452 503H973.502C973.427 502.575 973.352 501.7 973.352 501.05V495C973.352 492.525 971.902 490.325 968.002 490.325C964.702 490.325 962.927 492.45 962.727 494.375L965.677 495C965.777 493.925 966.577 493 968.027 493C969.427 493 970.102 493.725 970.102 494.6C970.102 495.025 969.877 495.375 969.177 495.475L966.152 495.925C964.102 496.225 962.477 497.45 962.477 499.65ZM967.402 500.875C966.327 500.875 965.802 500.175 965.802 499.45C965.802 498.5 966.477 498.025 967.327 497.9L970.102 497.475V498.025C970.102 500.2 968.802 500.875 967.402 500.875ZM979.979 503V495.8C979.979 494.45 980.829 493.375 982.279 493.375C983.779 493.375 984.454 494.375 984.454 495.7V503H987.754V495.8C987.754 494.475 988.604 493.375 990.029 493.375C991.554 493.375 992.204 494.375 992.204 495.7V503H995.429V495.025C995.429 491.725 993.254 490.35 990.979 490.35C989.354 490.35 988.054 490.9 987.079 492.4C986.454 491.075 985.104 490.35 983.429 490.35C982.079 490.35 980.504 491 979.829 492.2V490.7H976.654V503H979.979ZM1001.3 495.45C1001.38 494.325 1002.33 493.025 1004.05 493.025C1005.95 493.025 1006.75 494.225 1006.8 495.45H1001.3ZM1007.13 498.65C1006.73 499.75 1005.88 500.525 1004.33 500.525C1002.68 500.525 1001.3 499.35 1001.23 497.725H1010.03C1010.03 497.675 1010.08 497.175 1010.08 496.7C1010.08 492.75 1007.8 490.325 1004 490.325C1000.85 490.325 997.95 492.875 997.95 496.8C997.95 500.95 1000.93 503.375 1004.3 503.375C1007.33 503.375 1009.28 501.6 1009.9 499.475L1007.13 498.65ZM1183.71 503H1187.46L1180.71 485.275H1176.71L1169.91 503H1173.56L1175.03 498.95H1182.23L1183.71 503ZM1178.63 489.1L1181.08 495.8H1176.18L1178.63 489.1ZM1196.9 490.65C1196.65 490.625 1196.4 490.6 1196.12 490.6C1195.07 490.6 1193.37 490.9 1192.62 492.525V490.7H1189.4V503H1192.72V497.375C1192.72 494.725 1194.2 493.9 1195.9 493.9C1196.2 493.9 1196.52 493.925 1196.9 494V490.65ZM1203.42 487.025H1200.42V488.75C1200.42 489.85 1199.82 490.7 1198.52 490.7H1197.89V493.65H1200.12V499.375C1200.12 501.75 1201.62 503.175 1204.02 503.175C1204.99 503.175 1205.59 503 1205.89 502.875V500.125C1205.72 500.175 1205.27 500.225 1204.87 500.225C1203.92 500.225 1203.42 499.875 1203.42 498.8V493.65H1205.89V490.7H1203.42V487.025ZM1211.89 503V490.7H1208.56V503H1211.89ZM1208.16 486.675C1208.16 487.775 1209.09 488.7 1210.21 488.7C1211.36 488.7 1212.26 487.775 1212.26 486.675C1212.26 485.525 1211.36 484.6 1210.21 484.6C1209.09 484.6 1208.16 485.525 1208.16 486.675ZM1214.45 499.575C1214.6 500.975 1215.88 503.375 1219.58 503.375C1222.8 503.375 1224.35 501.325 1224.35 499.325C1224.35 497.525 1223.13 496.05 1220.7 495.55L1218.95 495.175C1218.28 495.05 1217.83 494.675 1217.83 494.075C1217.83 493.375 1218.53 492.85 1219.4 492.85C1220.8 492.85 1221.33 493.775 1221.43 494.5L1224.2 493.875C1224.05 492.55 1222.88 490.325 1219.38 490.325C1216.73 490.325 1214.78 492.15 1214.78 494.35C1214.78 496.075 1215.85 497.5 1218.23 498.025L1219.85 498.4C1220.8 498.6 1221.18 499.05 1221.18 499.6C1221.18 500.25 1220.65 500.825 1219.55 500.825C1218.1 500.825 1217.38 499.925 1217.3 498.95L1214.45 499.575ZM1231.37 487.025H1228.37V488.75C1228.37 489.85 1227.77 490.7 1226.47 490.7H1225.84V493.65H1228.07V499.375C1228.07 501.75 1229.57 503.175 1231.97 503.175C1232.94 503.175 1233.54 503 1233.84 502.875V500.125C1233.67 500.175 1233.22 500.225 1232.82 500.225C1231.87 500.225 1231.37 499.875 1231.37 498.8V493.65H1233.84V490.7H1231.37V487.025ZM1245.78 495.925C1245.78 494.5 1246.63 493.375 1248.08 493.375C1249.68 493.375 1250.35 494.45 1250.35 495.825V503H1253.68V495.25C1253.68 492.55 1252.28 490.375 1249.23 490.375C1247.9 490.375 1246.43 490.95 1245.68 492.225V490.7H1242.45V503H1245.78V495.925ZM1256.23 499.65C1256.23 501.575 1257.83 503.35 1260.45 503.35C1262.28 503.35 1263.45 502.5 1264.08 501.525C1264.08 502 1264.13 502.675 1264.2 503H1267.25C1267.18 502.575 1267.1 501.7 1267.1 501.05V495C1267.1 492.525 1265.65 490.325 1261.75 490.325C1258.45 490.325 1256.68 492.45 1256.48 494.375L1259.43 495C1259.53 493.925 1260.33 493 1261.78 493C1263.18 493 1263.85 493.725 1263.85 494.6C1263.85 495.025 1263.63 495.375 1262.93 495.475L1259.9 495.925C1257.85 496.225 1256.23 497.45 1256.23 499.65ZM1261.15 500.875C1260.08 500.875 1259.55 500.175 1259.55 499.45C1259.55 498.5 1260.23 498.025 1261.08 497.9L1263.85 497.475V498.025C1263.85 500.2 1262.55 500.875 1261.15 500.875ZM1273.73 503V495.8C1273.73 494.45 1274.58 493.375 1276.03 493.375C1277.53 493.375 1278.2 494.375 1278.2 495.7V503H1281.5V495.8C1281.5 494.475 1282.35 493.375 1283.78 493.375C1285.3 493.375 1285.95 494.375 1285.95 495.7V503H1289.18V495.025C1289.18 491.725 1287 490.35 1284.73 490.35C1283.1 490.35 1281.8 490.9 1280.83 492.4C1280.2 491.075 1278.85 490.35 1277.18 490.35C1275.83 490.35 1274.25 491 1273.58 492.2V490.7H1270.4V503H1273.73ZM1295.05 495.45C1295.13 494.325 1296.08 493.025 1297.8 493.025C1299.7 493.025 1300.5 494.225 1300.55 495.45H1295.05ZM1300.88 498.65C1300.48 499.75 1299.63 500.525 1298.08 500.525C1296.43 500.525 1295.05 499.35 1294.98 497.725H1303.78C1303.78 497.675 1303.83 497.175 1303.83 496.7C1303.83 492.75 1301.55 490.325 1297.75 490.325C1294.6 490.325 1291.7 492.875 1291.7 496.8C1291.7 500.95 1294.68 503.375 1298.05 503.375C1301.08 503.375 1303.03 501.6 1303.65 499.475L1300.88 498.65ZM1113.37 547H1117.12L1110.37 529.275H1106.37L1099.57 547H1103.22L1104.69 542.95H1111.89L1113.37 547ZM1108.29 533.1L1110.74 539.8H1105.84L1108.29 533.1ZM1126.56 534.65C1126.31 534.625 1126.06 534.6 1125.79 534.6C1124.74 534.6 1123.04 534.9 1122.29 536.525V534.7H1119.06V547H1122.39V541.375C1122.39 538.725 1123.86 537.9 1125.56 537.9C1125.86 537.9 1126.19 537.925 1126.56 538V534.65ZM1133.08 531.025H1130.08V532.75C1130.08 533.85 1129.48 534.7 1128.18 534.7H1127.55V537.65H1129.78V543.375C1129.78 545.75 1131.28 547.175 1133.68 547.175C1134.65 547.175 1135.25 547 1135.55 546.875V544.125C1135.38 544.175 1134.93 544.225 1134.53 544.225C1133.58 544.225 1133.08 543.875 1133.08 542.8V537.65H1135.55V534.7H1133.08V531.025ZM1141.55 547V534.7H1138.23V547H1141.55ZM1137.83 530.675C1137.83 531.775 1138.75 532.7 1139.88 532.7C1141.03 532.7 1141.93 531.775 1141.93 530.675C1141.93 529.525 1141.03 528.6 1139.88 528.6C1138.75 528.6 1137.83 529.525 1137.83 530.675ZM1144.12 543.575C1144.27 544.975 1145.54 547.375 1149.24 547.375C1152.47 547.375 1154.02 545.325 1154.02 543.325C1154.02 541.525 1152.79 540.05 1150.37 539.55L1148.62 539.175C1147.94 539.05 1147.49 538.675 1147.49 538.075C1147.49 537.375 1148.19 536.85 1149.07 536.85C1150.47 536.85 1150.99 537.775 1151.09 538.5L1153.87 537.875C1153.72 536.55 1152.54 534.325 1149.04 534.325C1146.39 534.325 1144.44 536.15 1144.44 538.35C1144.44 540.075 1145.52 541.5 1147.89 542.025L1149.52 542.4C1150.47 542.6 1150.84 543.05 1150.84 543.6C1150.84 544.25 1150.32 544.825 1149.22 544.825C1147.77 544.825 1147.04 543.925 1146.97 542.95L1144.12 543.575ZM1161.03 531.025H1158.03V532.75C1158.03 533.85 1157.43 534.7 1156.13 534.7H1155.51V537.65H1157.73V543.375C1157.73 545.75 1159.23 547.175 1161.63 547.175C1162.61 547.175 1163.21 547 1163.51 546.875V544.125C1163.33 544.175 1162.88 544.225 1162.48 544.225C1161.53 544.225 1161.03 543.875 1161.03 542.8V537.65H1163.51V534.7H1161.03V531.025ZM1175.44 539.925C1175.44 538.5 1176.29 537.375 1177.74 537.375C1179.34 537.375 1180.01 538.45 1180.01 539.825V547H1183.34V539.25C1183.34 536.55 1181.94 534.375 1178.89 534.375C1177.56 534.375 1176.09 534.95 1175.34 536.225V534.7H1172.11V547H1175.44V539.925ZM1185.89 543.65C1185.89 545.575 1187.49 547.35 1190.12 547.35C1191.94 547.35 1193.12 546.5 1193.74 545.525C1193.74 546 1193.79 546.675 1193.87 547H1196.92C1196.84 546.575 1196.77 545.7 1196.77 545.05V539C1196.77 536.525 1195.32 534.325 1191.42 534.325C1188.12 534.325 1186.34 536.45 1186.14 538.375L1189.09 539C1189.19 537.925 1189.99 537 1191.44 537C1192.84 537 1193.52 537.725 1193.52 538.6C1193.52 539.025 1193.29 539.375 1192.59 539.475L1189.57 539.925C1187.52 540.225 1185.89 541.45 1185.89 543.65ZM1190.82 544.875C1189.74 544.875 1189.22 544.175 1189.22 543.45C1189.22 542.5 1189.89 542.025 1190.74 541.9L1193.52 541.475V542.025C1193.52 544.2 1192.22 544.875 1190.82 544.875ZM1203.39 547V539.8C1203.39 538.45 1204.24 537.375 1205.69 537.375C1207.19 537.375 1207.87 538.375 1207.87 539.7V547H1211.17V539.8C1211.17 538.475 1212.02 537.375 1213.44 537.375C1214.97 537.375 1215.62 538.375 1215.62 539.7V547H1218.84V539.025C1218.84 535.725 1216.67 534.35 1214.39 534.35C1212.77 534.35 1211.47 534.9 1210.49 536.4C1209.87 535.075 1208.52 534.35 1206.84 534.35C1205.49 534.35 1203.92 535 1203.24 536.2V534.7H1200.07V547H1203.39ZM1224.71 539.45C1224.79 538.325 1225.74 537.025 1227.46 537.025C1229.36 537.025 1230.16 538.225 1230.21 539.45H1224.71ZM1230.54 542.65C1230.14 543.75 1229.29 544.525 1227.74 544.525C1226.09 544.525 1224.71 543.35 1224.64 541.725H1233.44C1233.44 541.675 1233.49 541.175 1233.49 540.7C1233.49 536.75 1231.21 534.325 1227.41 534.325C1224.26 534.325 1221.36 536.875 1221.36 540.8C1221.36 544.95 1224.34 547.375 1227.71 547.375C1230.74 547.375 1232.69 545.6 1233.31 543.475L1230.54 542.65ZM1049.18 591H1052.93L1046.18 573.275H1042.18L1035.38 591H1039.03L1040.51 586.95H1047.71L1049.18 591ZM1044.11 577.1L1046.56 583.8H1041.66L1044.11 577.1ZM1062.38 578.65C1062.13 578.625 1061.88 578.6 1061.6 578.6C1060.55 578.6 1058.85 578.9 1058.1 580.525V578.7H1054.88V591H1058.2V585.375C1058.2 582.725 1059.68 581.9 1061.38 581.9C1061.68 581.9 1062 581.925 1062.38 582V578.65ZM1068.89 575.025H1065.89V576.75C1065.89 577.85 1065.29 578.7 1063.99 578.7H1063.37V581.65H1065.59V587.375C1065.59 589.75 1067.09 591.175 1069.49 591.175C1070.47 591.175 1071.07 591 1071.37 590.875V588.125C1071.19 588.175 1070.74 588.225 1070.34 588.225C1069.39 588.225 1068.89 587.875 1068.89 586.8V581.65H1071.37V578.7H1068.89V575.025ZM1077.37 591V578.7H1074.04V591H1077.37ZM1073.64 574.675C1073.64 575.775 1074.57 576.7 1075.69 576.7C1076.84 576.7 1077.74 575.775 1077.74 574.675C1077.74 573.525 1076.84 572.6 1075.69 572.6C1074.57 572.6 1073.64 573.525 1073.64 574.675ZM1079.93 587.575C1080.08 588.975 1081.36 591.375 1085.06 591.375C1088.28 591.375 1089.83 589.325 1089.83 587.325C1089.83 585.525 1088.61 584.05 1086.18 583.55L1084.43 583.175C1083.76 583.05 1083.31 582.675 1083.31 582.075C1083.31 581.375 1084.01 580.85 1084.88 580.85C1086.28 580.85 1086.81 581.775 1086.91 582.5L1089.68 581.875C1089.53 580.55 1088.36 578.325 1084.86 578.325C1082.21 578.325 1080.26 580.15 1080.26 582.35C1080.26 584.075 1081.33 585.5 1083.71 586.025L1085.33 586.4C1086.28 586.6 1086.66 587.05 1086.66 587.6C1086.66 588.25 1086.13 588.825 1085.03 588.825C1083.58 588.825 1082.86 587.925 1082.78 586.95L1079.93 587.575ZM1096.85 575.025H1093.85V576.75C1093.85 577.85 1093.25 578.7 1091.95 578.7H1091.32V581.65H1093.55V587.375C1093.55 589.75 1095.05 591.175 1097.45 591.175C1098.42 591.175 1099.02 591 1099.32 590.875V588.125C1099.15 588.175 1098.7 588.225 1098.3 588.225C1097.35 588.225 1096.85 587.875 1096.85 586.8V581.65H1099.32V578.7H1096.85V575.025ZM1111.25 583.925C1111.25 582.5 1112.1 581.375 1113.55 581.375C1115.15 581.375 1115.83 582.45 1115.83 583.825V591H1119.15V583.25C1119.15 580.55 1117.75 578.375 1114.7 578.375C1113.38 578.375 1111.9 578.95 1111.15 580.225V578.7H1107.93V591H1111.25V583.925ZM1121.71 587.65C1121.71 589.575 1123.31 591.35 1125.93 591.35C1127.76 591.35 1128.93 590.5 1129.56 589.525C1129.56 590 1129.61 590.675 1129.68 591H1132.73C1132.66 590.575 1132.58 589.7 1132.58 589.05V583C1132.58 580.525 1131.13 578.325 1127.23 578.325C1123.93 578.325 1122.16 580.45 1121.96 582.375L1124.91 583C1125.01 581.925 1125.81 581 1127.26 581C1128.66 581 1129.33 581.725 1129.33 582.6C1129.33 583.025 1129.11 583.375 1128.41 583.475L1125.38 583.925C1123.33 584.225 1121.71 585.45 1121.71 587.65ZM1126.63 588.875C1125.56 588.875 1125.03 588.175 1125.03 587.45C1125.03 586.5 1125.71 586.025 1126.56 585.9L1129.33 585.475V586.025C1129.33 588.2 1128.03 588.875 1126.63 588.875ZM1139.21 591V583.8C1139.21 582.45 1140.06 581.375 1141.51 581.375C1143.01 581.375 1143.68 582.375 1143.68 583.7V591H1146.98V583.8C1146.98 582.475 1147.83 581.375 1149.26 581.375C1150.78 581.375 1151.43 582.375 1151.43 583.7V591H1154.66V583.025C1154.66 579.725 1152.48 578.35 1150.21 578.35C1148.58 578.35 1147.28 578.9 1146.31 580.4C1145.68 579.075 1144.33 578.35 1142.66 578.35C1141.31 578.35 1139.73 579 1139.06 580.2V578.7H1135.88V591H1139.21ZM1160.53 583.45C1160.6 582.325 1161.55 581.025 1163.28 581.025C1165.18 581.025 1165.98 582.225 1166.03 583.45H1160.53ZM1166.35 586.65C1165.95 587.75 1165.1 588.525 1163.55 588.525C1161.9 588.525 1160.53 587.35 1160.45 585.725H1169.25C1169.25 585.675 1169.3 585.175 1169.3 584.7C1169.3 580.75 1167.03 578.325 1163.23 578.325C1160.08 578.325 1157.18 580.875 1157.18 584.8C1157.18 588.95 1160.15 591.375 1163.53 591.375C1166.55 591.375 1168.5 589.6 1169.13 587.475L1166.35 586.65ZM947.975 631.65C947.975 633.575 949.575 635.35 952.2 635.35C954.025 635.35 955.2 634.5 955.825 633.525C955.825 634 955.875 634.675 955.95 635H959C958.925 634.575 958.85 633.7 958.85 633.05V627C958.85 624.525 957.4 622.325 953.5 622.325C950.2 622.325 948.425 624.45 948.225 626.375L951.175 627C951.275 625.925 952.075 625 953.525 625C954.925 625 955.6 625.725 955.6 626.6C955.6 627.025 955.375 627.375 954.675 627.475L951.65 627.925C949.6 628.225 947.975 629.45 947.975 631.65ZM952.9 632.875C951.825 632.875 951.3 632.175 951.3 631.45C951.3 630.5 951.975 630.025 952.825 629.9L955.6 629.475V630.025C955.6 632.2 954.3 632.875 952.9 632.875ZM965.477 627.925C965.477 626.5 966.327 625.375 967.777 625.375C969.377 625.375 970.052 626.45 970.052 627.825V635H973.377V627.25C973.377 624.55 971.977 622.375 968.927 622.375C967.602 622.375 966.127 622.95 965.377 624.225V622.7H962.152V635H965.477V627.925ZM988.554 616.9H985.279V623.925C984.929 623.275 983.929 622.4 981.804 622.4C978.329 622.4 975.904 625.225 975.904 628.825C975.904 632.55 978.404 635.3 981.904 635.3C983.554 635.3 984.804 634.55 985.354 633.575C985.354 634.15 985.429 634.75 985.479 635H988.654C988.604 634.5 988.554 633.6 988.554 632.775V616.9ZM979.254 628.825C979.254 626.625 980.604 625.375 982.304 625.375C984.004 625.375 985.329 626.6 985.329 628.8C985.329 631.025 984.004 632.325 982.304 632.325C980.554 632.325 979.254 631.025 979.254 628.825ZM1001.22 635V627.8C1001.22 626.45 1002.07 625.375 1003.52 625.375C1005.02 625.375 1005.69 626.375 1005.69 627.7V635H1008.99V627.8C1008.99 626.475 1009.84 625.375 1011.27 625.375C1012.79 625.375 1013.44 626.375 1013.44 627.7V635H1016.67V627.025C1016.67 623.725 1014.49 622.35 1012.22 622.35C1010.59 622.35 1009.29 622.9 1008.32 624.4C1007.69 623.075 1006.34 622.35 1004.67 622.35C1003.32 622.35 1001.74 623 1001.07 624.2V622.7H997.894V635H1001.22ZM1025.64 632.35C1024.02 632.35 1022.52 631.15 1022.52 628.85C1022.52 626.525 1024.02 625.35 1025.64 625.35C1027.27 625.35 1028.77 626.525 1028.77 628.85C1028.77 631.175 1027.27 632.35 1025.64 632.35ZM1025.64 622.325C1021.97 622.325 1019.19 625.05 1019.19 628.85C1019.19 632.625 1021.97 635.375 1025.64 635.375C1029.32 635.375 1032.09 632.625 1032.09 628.85C1032.09 625.05 1029.32 622.325 1025.64 622.325ZM1042.24 622.65C1041.99 622.625 1041.74 622.6 1041.46 622.6C1040.41 622.6 1038.71 622.9 1037.96 624.525V622.7H1034.74V635H1038.06V629.375C1038.06 626.725 1039.54 625.9 1041.24 625.9C1041.54 625.9 1041.86 625.925 1042.24 626V622.65ZM1046.88 627.45C1046.96 626.325 1047.91 625.025 1049.63 625.025C1051.53 625.025 1052.33 626.225 1052.38 627.45H1046.88ZM1052.71 630.65C1052.31 631.75 1051.46 632.525 1049.91 632.525C1048.26 632.525 1046.88 631.35 1046.81 629.725H1055.61C1055.61 629.675 1055.66 629.175 1055.66 628.7C1055.66 624.75 1053.38 622.325 1049.58 622.325C1046.43 622.325 1043.53 624.875 1043.53 628.8C1043.53 632.95 1046.51 635.375 1049.88 635.375C1052.91 635.375 1054.86 633.6 1055.48 631.475L1052.71 630.65Z" fill="#503750"/>
<rect x="368" y="646" width="74" height="74" fill="#503850"/>
<rect x="368" y="744" width="74" height="74" fill="#503850"/>
<rect x="368" y="842" width="74" height="74" fill="#503850"/>
<rect x="368" y="942" width="74" height="74" fill="#503850"/>
<path d="M476 663.5C475.6 661.5 473.95 658.9 469.65 658.9C466.3 658.9 463.475 661.3 463.475 664.45C463.475 667.125 465.3 668.95 468.125 669.525L470.6 670.025C471.975 670.3 472.75 671.1 472.75 672.125C472.75 673.375 471.725 674.3 469.875 674.3C467.375 674.3 466.15 672.725 466 670.975L462.8 671.825C463.075 674.35 465.15 677.375 469.85 677.375C473.975 677.375 476.25 674.625 476.25 671.9C476.25 669.4 474.525 667.3 471.3 666.675L468.825 666.2C467.525 665.95 466.9 665.175 466.9 664.2C466.9 663.025 468 661.95 469.675 661.95C471.925 661.95 472.725 663.475 472.9 664.45L476 663.5ZM484.659 674.35C483.034 674.35 481.534 673.15 481.534 670.85C481.534 668.525 483.034 667.35 484.659 667.35C486.284 667.35 487.784 668.525 487.784 670.85C487.784 673.175 486.284 674.35 484.659 674.35ZM484.659 664.325C480.984 664.325 478.209 667.05 478.209 670.85C478.209 674.625 480.984 677.375 484.659 677.375C488.334 677.375 491.109 674.625 491.109 670.85C491.109 667.05 488.334 664.325 484.659 664.325ZM497.079 669.925C497.079 668.5 497.929 667.375 499.379 667.375C500.979 667.375 501.654 668.45 501.654 669.825V677H504.979V669.25C504.979 666.55 503.579 664.375 500.529 664.375C499.204 664.375 497.729 664.95 496.979 666.225V664.7H493.754V677H497.079V669.925ZM507.531 677.675C507.881 680.025 510.131 682.125 513.506 682.125C518.131 682.125 519.956 679.05 519.956 675.675V664.7H516.756V666.15C516.331 665.325 515.206 664.475 513.256 664.475C509.881 664.475 507.531 667.225 507.531 670.475C507.531 673.925 509.981 676.45 513.256 676.45C515.031 676.45 516.181 675.675 516.681 674.875V675.775C516.681 678.15 515.506 679.2 513.406 679.2C511.831 679.2 510.756 678.225 510.531 676.875L507.531 677.675ZM513.831 673.6C512.106 673.6 510.881 672.4 510.881 670.475C510.881 668.575 512.181 667.375 513.831 667.375C515.431 667.375 516.731 668.575 516.731 670.475C516.731 672.375 515.531 673.6 513.831 673.6ZM544.776 677V659.275H541.326V671L533.951 659.275H529.651V677H533.101V664.425L541.151 677H544.776ZM547.643 673.65C547.643 675.575 549.243 677.35 551.868 677.35C553.693 677.35 554.868 676.5 555.493 675.525C555.493 676 555.543 676.675 555.618 677H558.668C558.593 676.575 558.518 675.7 558.518 675.05V669C558.518 666.525 557.068 664.325 553.168 664.325C549.868 664.325 548.093 666.45 547.893 668.375L550.843 669C550.943 667.925 551.743 667 553.193 667C554.593 667 555.268 667.725 555.268 668.6C555.268 669.025 555.043 669.375 554.343 669.475L551.318 669.925C549.268 670.225 547.643 671.45 547.643 673.65ZM552.568 674.875C551.493 674.875 550.968 674.175 550.968 673.45C550.968 672.5 551.643 672.025 552.493 671.9L555.268 671.475V672.025C555.268 674.2 553.968 674.875 552.568 674.875ZM565.145 677V669.8C565.145 668.45 565.995 667.375 567.445 667.375C568.945 667.375 569.62 668.375 569.62 669.7V677H572.92V669.8C572.92 668.475 573.77 667.375 575.195 667.375C576.72 667.375 577.37 668.375 577.37 669.7V677H580.595V669.025C580.595 665.725 578.42 664.35 576.145 664.35C574.52 664.35 573.22 664.9 572.245 666.4C571.62 665.075 570.27 664.35 568.595 664.35C567.245 664.35 565.67 665 564.995 666.2V664.7H561.82V677H565.145ZM586.466 669.45C586.541 668.325 587.491 667.025 589.216 667.025C591.116 667.025 591.916 668.225 591.966 669.45H586.466ZM592.291 672.65C591.891 673.75 591.041 674.525 589.491 674.525C587.841 674.525 586.466 673.35 586.391 671.725H595.191C595.191 671.675 595.241 671.175 595.241 670.7C595.241 666.75 592.966 664.325 589.166 664.325C586.016 664.325 583.116 666.875 583.116 670.8C583.116 674.95 586.091 677.375 589.466 677.375C592.491 677.375 594.441 675.6 595.066 673.475L592.291 672.65Z" fill="#503850"/>
<path d="M473.76 705H475.88L470.24 690.82H467.98L462.34 705H464.44L465.94 701.04H472.22L473.76 705ZM469.06 692.86L471.52 699.22H466.64L469.06 692.86ZM483.079 695.28C482.979 695.26 482.719 695.22 482.459 695.22C481.479 695.22 480.279 695.58 479.579 697.06V695.38H477.739V705H479.619V700.18C479.619 698.06 480.679 697.22 482.259 697.22C482.519 697.22 482.799 697.24 483.079 697.28V695.28ZM487.624 692.34H485.904V693.9C485.904 694.74 485.464 695.38 484.424 695.38H483.904V697.08H485.744V702.36C485.744 704.1 486.784 705.1 488.424 705.1C489.064 705.1 489.544 704.98 489.704 704.92V703.32C489.544 703.36 489.204 703.4 488.964 703.4C487.984 703.4 487.624 702.96 487.624 702.08V697.08H489.704V695.38H487.624V692.34ZM493.798 705V695.38H491.938V705H493.798ZM491.518 691.74C491.518 692.48 492.118 693.08 492.858 693.08C493.618 693.08 494.218 692.48 494.218 691.74C494.218 690.98 493.618 690.38 492.858 690.38C492.118 690.38 491.518 690.98 491.518 691.74ZM496.08 702.5C496.24 703.6 497.36 705.3 500 705.3C502.38 705.3 503.52 703.68 503.52 702.32C503.52 700.9 502.6 699.84 500.86 699.46L499.3 699.12C498.56 698.96 498.2 698.54 498.2 697.96C498.2 697.3 498.84 696.68 499.8 696.68C501.32 696.68 501.72 697.78 501.8 698.28L503.46 697.66C503.26 696.8 502.44 695.08 499.8 695.08C497.92 695.08 496.38 696.48 496.38 698.12C496.38 699.48 497.28 700.5 498.78 700.82L500.42 701.18C501.22 701.36 501.66 701.82 501.66 702.42C501.66 703.1 501.08 703.7 500.02 703.7C498.66 703.7 497.9 702.9 497.78 701.9L496.08 702.5ZM508.562 692.34H506.842V693.9C506.842 694.74 506.402 695.38 505.362 695.38H504.842V697.08H506.682V702.36C506.682 704.1 507.722 705.1 509.362 705.1C510.002 705.1 510.482 704.98 510.642 704.92V703.32C510.482 703.36 510.142 703.4 509.902 703.4C508.922 703.4 508.562 702.96 508.562 702.08V697.08H510.642V695.38H508.562V692.34ZM519.795 699.44C519.795 697.98 520.555 696.8 522.035 696.8C523.715 696.8 524.275 697.88 524.275 699.22V705H526.155V698.9C526.155 696.76 525.015 695.1 522.715 695.1C521.595 695.1 520.455 695.56 519.755 696.76V695.38H517.915V705H519.795V699.44ZM528.446 702.42C528.446 703.94 529.706 705.3 531.666 705.3C533.386 705.3 534.346 704.38 534.766 703.7C534.766 704.4 534.826 704.76 534.866 705H536.706C536.666 704.76 536.586 704.26 536.586 703.42V698.6C536.586 696.72 535.466 695.08 532.586 695.08C530.506 695.08 528.846 696.36 528.646 698.2L530.446 698.62C530.566 697.5 531.306 696.68 532.626 696.68C534.086 696.68 534.706 697.46 534.706 698.4C534.706 698.74 534.546 699.04 533.966 699.12L531.366 699.5C529.706 699.74 528.446 700.7 528.446 702.42ZM531.926 703.72C530.966 703.72 530.366 703.04 530.366 702.32C530.366 701.46 530.966 701 531.766 700.88L534.706 700.44V700.88C534.706 702.98 533.466 703.72 531.926 703.72ZM541.415 705V699.2C541.415 697.76 542.315 696.76 543.655 696.76C545.095 696.76 545.695 697.72 545.695 698.96V705H547.575V699.18C547.575 697.8 548.475 696.76 549.795 696.76C551.215 696.76 551.835 697.7 551.835 698.96V705H553.695V698.76C553.695 696.24 552.055 695.1 550.375 695.1C549.155 695.1 547.915 695.54 547.155 696.92C546.635 695.68 545.475 695.1 544.275 695.1C543.155 695.1 541.955 695.6 541.355 696.66V695.38H539.555V705H541.415ZM557.985 699.2C558.065 697.96 559.025 696.74 560.605 696.74C562.305 696.74 563.205 697.82 563.245 699.2H557.985ZM563.525 701.7C563.165 702.78 562.385 703.64 560.825 703.64C559.205 703.64 557.965 702.44 557.925 700.72H565.165C565.185 700.6 565.205 700.36 565.205 700.12C565.205 697.12 563.545 695.08 560.585 695.08C558.165 695.08 555.985 697.14 555.985 700.16C555.985 703.42 558.245 705.3 560.825 705.3C563.065 705.3 564.605 703.96 565.145 702.26L563.525 701.7Z" fill="#876789"/>
<path d="M476 758.5C475.6 756.5 473.95 753.9 469.65 753.9C466.3 753.9 463.475 756.3 463.475 759.45C463.475 762.125 465.3 763.95 468.125 764.525L470.6 765.025C471.975 765.3 472.75 766.1 472.75 767.125C472.75 768.375 471.725 769.3 469.875 769.3C467.375 769.3 466.15 767.725 466 765.975L462.8 766.825C463.075 769.35 465.15 772.375 469.85 772.375C473.975 772.375 476.25 769.625 476.25 766.9C476.25 764.4 474.525 762.3 471.3 761.675L468.825 761.2C467.525 760.95 466.9 760.175 466.9 759.2C466.9 758.025 468 756.95 469.675 756.95C471.925 756.95 472.725 758.475 472.9 759.45L476 758.5ZM484.659 769.35C483.034 769.35 481.534 768.15 481.534 765.85C481.534 763.525 483.034 762.35 484.659 762.35C486.284 762.35 487.784 763.525 487.784 765.85C487.784 768.175 486.284 769.35 484.659 769.35ZM484.659 759.325C480.984 759.325 478.209 762.05 478.209 765.85C478.209 769.625 480.984 772.375 484.659 772.375C488.334 772.375 491.109 769.625 491.109 765.85C491.109 762.05 488.334 759.325 484.659 759.325ZM497.079 764.925C497.079 763.5 497.929 762.375 499.379 762.375C500.979 762.375 501.654 763.45 501.654 764.825V772H504.979V764.25C504.979 761.55 503.579 759.375 500.529 759.375C499.204 759.375 497.729 759.95 496.979 761.225V759.7H493.754V772H497.079V764.925ZM507.531 772.675C507.881 775.025 510.131 777.125 513.506 777.125C518.131 777.125 519.956 774.05 519.956 770.675V759.7H516.756V761.15C516.331 760.325 515.206 759.475 513.256 759.475C509.881 759.475 507.531 762.225 507.531 765.475C507.531 768.925 509.981 771.45 513.256 771.45C515.031 771.45 516.181 770.675 516.681 769.875V770.775C516.681 773.15 515.506 774.2 513.406 774.2C511.831 774.2 510.756 773.225 510.531 771.875L507.531 772.675ZM513.831 768.6C512.106 768.6 510.881 767.4 510.881 765.475C510.881 763.575 512.181 762.375 513.831 762.375C515.431 762.375 516.731 763.575 516.731 765.475C516.731 767.375 515.531 768.6 513.831 768.6ZM544.776 772V754.275H541.326V766L533.951 754.275H529.651V772H533.101V759.425L541.151 772H544.776ZM547.643 768.65C547.643 770.575 549.243 772.35 551.868 772.35C553.693 772.35 554.868 771.5 555.493 770.525C555.493 771 555.543 771.675 555.618 772H558.668C558.593 771.575 558.518 770.7 558.518 770.05V764C558.518 761.525 557.068 759.325 553.168 759.325C549.868 759.325 548.093 761.45 547.893 763.375L550.843 764C550.943 762.925 551.743 762 553.193 762C554.593 762 555.268 762.725 555.268 763.6C555.268 764.025 555.043 764.375 554.343 764.475L551.318 764.925C549.268 765.225 547.643 766.45 547.643 768.65ZM552.568 769.875C551.493 769.875 550.968 769.175 550.968 768.45C550.968 767.5 551.643 767.025 552.493 766.9L555.268 766.475V767.025C555.268 769.2 553.968 769.875 552.568 769.875ZM565.145 772V764.8C565.145 763.45 565.995 762.375 567.445 762.375C568.945 762.375 569.62 763.375 569.62 764.7V772H572.92V764.8C572.92 763.475 573.77 762.375 575.195 762.375C576.72 762.375 577.37 763.375 577.37 764.7V772H580.595V764.025C580.595 760.725 578.42 759.35 576.145 759.35C574.52 759.35 573.22 759.9 572.245 761.4C571.62 760.075 570.27 759.35 568.595 759.35C567.245 759.35 565.67 760 564.995 761.2V759.7H561.82V772H565.145ZM586.466 764.45C586.541 763.325 587.491 762.025 589.216 762.025C591.116 762.025 591.916 763.225 591.966 764.45H586.466ZM592.291 767.65C591.891 768.75 591.041 769.525 589.491 769.525C587.841 769.525 586.466 768.35 586.391 766.725H595.191C595.191 766.675 595.241 766.175 595.241 765.7C595.241 761.75 592.966 759.325 589.166 759.325C586.016 759.325 583.116 761.875 583.116 765.8C583.116 769.95 586.091 772.375 589.466 772.375C592.491 772.375 594.441 770.6 595.066 768.475L592.291 767.65Z" fill="#503850"/>
<path d="M473.76 800H475.88L470.24 785.82H467.98L462.34 800H464.44L465.94 796.04H472.22L473.76 800ZM469.06 787.86L471.52 794.22H466.64L469.06 787.86ZM483.079 790.28C482.979 790.26 482.719 790.22 482.459 790.22C481.479 790.22 480.279 790.58 479.579 792.06V790.38H477.739V800H479.619V795.18C479.619 793.06 480.679 792.22 482.259 792.22C482.519 792.22 482.799 792.24 483.079 792.28V790.28ZM487.624 787.34H485.904V788.9C485.904 789.74 485.464 790.38 484.424 790.38H483.904V792.08H485.744V797.36C485.744 799.1 486.784 800.1 488.424 800.1C489.064 800.1 489.544 799.98 489.704 799.92V798.32C489.544 798.36 489.204 798.4 488.964 798.4C487.984 798.4 487.624 797.96 487.624 797.08V792.08H489.704V790.38H487.624V787.34ZM493.798 800V790.38H491.938V800H493.798ZM491.518 786.74C491.518 787.48 492.118 788.08 492.858 788.08C493.618 788.08 494.218 787.48 494.218 786.74C494.218 785.98 493.618 785.38 492.858 785.38C492.118 785.38 491.518 785.98 491.518 786.74ZM496.08 797.5C496.24 798.6 497.36 800.3 500 800.3C502.38 800.3 503.52 798.68 503.52 797.32C503.52 795.9 502.6 794.84 500.86 794.46L499.3 794.12C498.56 793.96 498.2 793.54 498.2 792.96C498.2 792.3 498.84 791.68 499.8 791.68C501.32 791.68 501.72 792.78 501.8 793.28L503.46 792.66C503.26 791.8 502.44 790.08 499.8 790.08C497.92 790.08 496.38 791.48 496.38 793.12C496.38 794.48 497.28 795.5 498.78 795.82L500.42 796.18C501.22 796.36 501.66 796.82 501.66 797.42C501.66 798.1 501.08 798.7 500.02 798.7C498.66 798.7 497.9 797.9 497.78 796.9L496.08 797.5ZM508.562 787.34H506.842V788.9C506.842 789.74 506.402 790.38 505.362 790.38H504.842V792.08H506.682V797.36C506.682 799.1 507.722 800.1 509.362 800.1C510.002 800.1 510.482 799.98 510.642 799.92V798.32C510.482 798.36 510.142 798.4 509.902 798.4C508.922 798.4 508.562 797.96 508.562 797.08V792.08H510.642V790.38H508.562V787.34ZM519.795 794.44C519.795 792.98 520.555 791.8 522.035 791.8C523.715 791.8 524.275 792.88 524.275 794.22V800H526.155V793.9C526.155 791.76 525.015 790.1 522.715 790.1C521.595 790.1 520.455 790.56 519.755 791.76V790.38H517.915V800H519.795V794.44ZM528.446 797.42C528.446 798.94 529.706 800.3 531.666 800.3C533.386 800.3 534.346 799.38 534.766 798.7C534.766 799.4 534.826 799.76 534.866 800H536.706C536.666 799.76 536.586 799.26 536.586 798.42V793.6C536.586 791.72 535.466 790.08 532.586 790.08C530.506 790.08 528.846 791.36 528.646 793.2L530.446 793.62C530.566 792.5 531.306 791.68 532.626 791.68C534.086 791.68 534.706 792.46 534.706 793.4C534.706 793.74 534.546 794.04 533.966 794.12L531.366 794.5C529.706 794.74 528.446 795.7 528.446 797.42ZM531.926 798.72C530.966 798.72 530.366 798.04 530.366 797.32C530.366 796.46 530.966 796 531.766 795.88L534.706 795.44V795.88C534.706 797.98 533.466 798.72 531.926 798.72ZM541.415 800V794.2C541.415 792.76 542.315 791.76 543.655 791.76C545.095 791.76 545.695 792.72 545.695 793.96V800H547.575V794.18C547.575 792.8 548.475 791.76 549.795 791.76C551.215 791.76 551.835 792.7 551.835 793.96V800H553.695V793.76C553.695 791.24 552.055 790.1 550.375 790.1C549.155 790.1 547.915 790.54 547.155 791.92C546.635 790.68 545.475 790.1 544.275 790.1C543.155 790.1 541.955 790.6 541.355 791.66V790.38H539.555V800H541.415ZM557.985 794.2C558.065 792.96 559.025 791.74 560.605 791.74C562.305 791.74 563.205 792.82 563.245 794.2H557.985ZM563.525 796.7C563.165 797.78 562.385 798.64 560.825 798.64C559.205 798.64 557.965 797.44 557.925 795.72H565.165C565.185 795.6 565.205 795.36 565.205 795.12C565.205 792.12 563.545 790.08 560.585 790.08C558.165 790.08 555.985 792.14 555.985 795.16C555.985 798.42 558.245 800.3 560.825 800.3C563.065 800.3 564.605 798.96 565.145 797.26L563.525 796.7Z" fill="#876789"/>
<path d="M476 856.5C475.6 854.5 473.95 851.9 469.65 851.9C466.3 851.9 463.475 854.3 463.475 857.45C463.475 860.125 465.3 861.95 468.125 862.525L470.6 863.025C471.975 863.3 472.75 864.1 472.75 865.125C472.75 866.375 471.725 867.3 469.875 867.3C467.375 867.3 466.15 865.725 466 863.975L462.8 864.825C463.075 867.35 465.15 870.375 469.85 870.375C473.975 870.375 476.25 867.625 476.25 864.9C476.25 862.4 474.525 860.3 471.3 859.675L468.825 859.2C467.525 858.95 466.9 858.175 466.9 857.2C466.9 856.025 468 854.95 469.675 854.95C471.925 854.95 472.725 856.475 472.9 857.45L476 856.5ZM484.659 867.35C483.034 867.35 481.534 866.15 481.534 863.85C481.534 861.525 483.034 860.35 484.659 860.35C486.284 860.35 487.784 861.525 487.784 863.85C487.784 866.175 486.284 867.35 484.659 867.35ZM484.659 857.325C480.984 857.325 478.209 860.05 478.209 863.85C478.209 867.625 480.984 870.375 484.659 870.375C488.334 870.375 491.109 867.625 491.109 863.85C491.109 860.05 488.334 857.325 484.659 857.325ZM497.079 862.925C497.079 861.5 497.929 860.375 499.379 860.375C500.979 860.375 501.654 861.45 501.654 862.825V870H504.979V862.25C504.979 859.55 503.579 857.375 500.529 857.375C499.204 857.375 497.729 857.95 496.979 859.225V857.7H493.754V870H497.079V862.925ZM507.531 870.675C507.881 873.025 510.131 875.125 513.506 875.125C518.131 875.125 519.956 872.05 519.956 868.675V857.7H516.756V859.15C516.331 858.325 515.206 857.475 513.256 857.475C509.881 857.475 507.531 860.225 507.531 863.475C507.531 866.925 509.981 869.45 513.256 869.45C515.031 869.45 516.181 868.675 516.681 867.875V868.775C516.681 871.15 515.506 872.2 513.406 872.2C511.831 872.2 510.756 871.225 510.531 869.875L507.531 870.675ZM513.831 866.6C512.106 866.6 510.881 865.4 510.881 863.475C510.881 861.575 512.181 860.375 513.831 860.375C515.431 860.375 516.731 861.575 516.731 863.475C516.731 865.375 515.531 866.6 513.831 866.6ZM544.776 870V852.275H541.326V864L533.951 852.275H529.651V870H533.101V857.425L541.151 870H544.776ZM547.643 866.65C547.643 868.575 549.243 870.35 551.868 870.35C553.693 870.35 554.868 869.5 555.493 868.525C555.493 869 555.543 869.675 555.618 870H558.668C558.593 869.575 558.518 868.7 558.518 868.05V862C558.518 859.525 557.068 857.325 553.168 857.325C549.868 857.325 548.093 859.45 547.893 861.375L550.843 862C550.943 860.925 551.743 860 553.193 860C554.593 860 555.268 860.725 555.268 861.6C555.268 862.025 555.043 862.375 554.343 862.475L551.318 862.925C549.268 863.225 547.643 864.45 547.643 866.65ZM552.568 867.875C551.493 867.875 550.968 867.175 550.968 866.45C550.968 865.5 551.643 865.025 552.493 864.9L555.268 864.475V865.025C555.268 867.2 553.968 867.875 552.568 867.875ZM565.145 870V862.8C565.145 861.45 565.995 860.375 567.445 860.375C568.945 860.375 569.62 861.375 569.62 862.7V870H572.92V862.8C572.92 861.475 573.77 860.375 575.195 860.375C576.72 860.375 577.37 861.375 577.37 862.7V870H580.595V862.025C580.595 858.725 578.42 857.35 576.145 857.35C574.52 857.35 573.22 857.9 572.245 859.4C571.62 858.075 570.27 857.35 568.595 857.35C567.245 857.35 565.67 858 564.995 859.2V857.7H561.82V870H565.145ZM586.466 862.45C586.541 861.325 587.491 860.025 589.216 860.025C591.116 860.025 591.916 861.225 591.966 862.45H586.466ZM592.291 865.65C591.891 866.75 591.041 867.525 589.491 867.525C587.841 867.525 586.466 866.35 586.391 864.725H595.191C595.191 864.675 595.241 864.175 595.241 863.7C595.241 859.75 592.966 857.325 589.166 857.325C586.016 857.325 583.116 859.875 583.116 863.8C583.116 867.95 586.091 870.375 589.466 870.375C592.491 870.375 594.441 868.6 595.066 866.475L592.291 865.65Z" fill="#503850"/>
<path d="M473.76 898H475.88L470.24 883.82H467.98L462.34 898H464.44L465.94 894.04H472.22L473.76 898ZM469.06 885.86L471.52 892.22H466.64L469.06 885.86ZM483.079 888.28C482.979 888.26 482.719 888.22 482.459 888.22C481.479 888.22 480.279 888.58 479.579 890.06V888.38H477.739V898H479.619V893.18C479.619 891.06 480.679 890.22 482.259 890.22C482.519 890.22 482.799 890.24 483.079 890.28V888.28ZM487.624 885.34H485.904V886.9C485.904 887.74 485.464 888.38 484.424 888.38H483.904V890.08H485.744V895.36C485.744 897.1 486.784 898.1 488.424 898.1C489.064 898.1 489.544 897.98 489.704 897.92V896.32C489.544 896.36 489.204 896.4 488.964 896.4C487.984 896.4 487.624 895.96 487.624 895.08V890.08H489.704V888.38H487.624V885.34ZM493.798 898V888.38H491.938V898H493.798ZM491.518 884.74C491.518 885.48 492.118 886.08 492.858 886.08C493.618 886.08 494.218 885.48 494.218 884.74C494.218 883.98 493.618 883.38 492.858 883.38C492.118 883.38 491.518 883.98 491.518 884.74ZM496.08 895.5C496.24 896.6 497.36 898.3 500 898.3C502.38 898.3 503.52 896.68 503.52 895.32C503.52 893.9 502.6 892.84 500.86 892.46L499.3 892.12C498.56 891.96 498.2 891.54 498.2 890.96C498.2 890.3 498.84 889.68 499.8 889.68C501.32 889.68 501.72 890.78 501.8 891.28L503.46 890.66C503.26 889.8 502.44 888.08 499.8 888.08C497.92 888.08 496.38 889.48 496.38 891.12C496.38 892.48 497.28 893.5 498.78 893.82L500.42 894.18C501.22 894.36 501.66 894.82 501.66 895.42C501.66 896.1 501.08 896.7 500.02 896.7C498.66 896.7 497.9 895.9 497.78 894.9L496.08 895.5ZM508.562 885.34H506.842V886.9C506.842 887.74 506.402 888.38 505.362 888.38H504.842V890.08H506.682V895.36C506.682 897.1 507.722 898.1 509.362 898.1C510.002 898.1 510.482 897.98 510.642 897.92V896.32C510.482 896.36 510.142 896.4 509.902 896.4C508.922 896.4 508.562 895.96 508.562 895.08V890.08H510.642V888.38H508.562V885.34ZM519.795 892.44C519.795 890.98 520.555 889.8 522.035 889.8C523.715 889.8 524.275 890.88 524.275 892.22V898H526.155V891.9C526.155 889.76 525.015 888.1 522.715 888.1C521.595 888.1 520.455 888.56 519.755 889.76V888.38H517.915V898H519.795V892.44ZM528.446 895.42C528.446 896.94 529.706 898.3 531.666 898.3C533.386 898.3 534.346 897.38 534.766 896.7C534.766 897.4 534.826 897.76 534.866 898H536.706C536.666 897.76 536.586 897.26 536.586 896.42V891.6C536.586 889.72 535.466 888.08 532.586 888.08C530.506 888.08 528.846 889.36 528.646 891.2L530.446 891.62C530.566 890.5 531.306 889.68 532.626 889.68C534.086 889.68 534.706 890.46 534.706 891.4C534.706 891.74 534.546 892.04 533.966 892.12L531.366 892.5C529.706 892.74 528.446 893.7 528.446 895.42ZM531.926 896.72C530.966 896.72 530.366 896.04 530.366 895.32C530.366 894.46 530.966 894 531.766 893.88L534.706 893.44V893.88C534.706 895.98 533.466 896.72 531.926 896.72ZM541.415 898V892.2C541.415 890.76 542.315 889.76 543.655 889.76C545.095 889.76 545.695 890.72 545.695 891.96V898H547.575V892.18C547.575 890.8 548.475 889.76 549.795 889.76C551.215 889.76 551.835 890.7 551.835 891.96V898H553.695V891.76C553.695 889.24 552.055 888.1 550.375 888.1C549.155 888.1 547.915 888.54 547.155 889.92C546.635 888.68 545.475 888.1 544.275 888.1C543.155 888.1 541.955 888.6 541.355 889.66V888.38H539.555V898H541.415ZM557.985 892.2C558.065 890.96 559.025 889.74 560.605 889.74C562.305 889.74 563.205 890.82 563.245 892.2H557.985ZM563.525 894.7C563.165 895.78 562.385 896.64 560.825 896.64C559.205 896.64 557.965 895.44 557.925 893.72H565.165C565.185 893.6 565.205 893.36 565.205 893.12C565.205 890.12 563.545 888.08 560.585 888.08C558.165 888.08 555.985 890.14 555.985 893.16C555.985 896.42 558.245 898.3 560.825 898.3C563.065 898.3 564.605 896.96 565.145 895.26L563.525 894.7Z" fill="#876789"/>
<path d="M476 960.5C475.6 958.5 473.95 955.9 469.65 955.9C466.3 955.9 463.475 958.3 463.475 961.45C463.475 964.125 465.3 965.95 468.125 966.525L470.6 967.025C471.975 967.3 472.75 968.1 472.75 969.125C472.75 970.375 471.725 971.3 469.875 971.3C467.375 971.3 466.15 969.725 466 967.975L462.8 968.825C463.075 971.35 465.15 974.375 469.85 974.375C473.975 974.375 476.25 971.625 476.25 968.9C476.25 966.4 474.525 964.3 471.3 963.675L468.825 963.2C467.525 962.95 466.9 962.175 466.9 961.2C466.9 960.025 468 958.95 469.675 958.95C471.925 958.95 472.725 960.475 472.9 961.45L476 960.5ZM484.659 971.35C483.034 971.35 481.534 970.15 481.534 967.85C481.534 965.525 483.034 964.35 484.659 964.35C486.284 964.35 487.784 965.525 487.784 967.85C487.784 970.175 486.284 971.35 484.659 971.35ZM484.659 961.325C480.984 961.325 478.209 964.05 478.209 967.85C478.209 971.625 480.984 974.375 484.659 974.375C488.334 974.375 491.109 971.625 491.109 967.85C491.109 964.05 488.334 961.325 484.659 961.325ZM497.079 966.925C497.079 965.5 497.929 964.375 499.379 964.375C500.979 964.375 501.654 965.45 501.654 966.825V974H504.979V966.25C504.979 963.55 503.579 961.375 500.529 961.375C499.204 961.375 497.729 961.95 496.979 963.225V961.7H493.754V974H497.079V966.925ZM507.531 974.675C507.881 977.025 510.131 979.125 513.506 979.125C518.131 979.125 519.956 976.05 519.956 972.675V961.7H516.756V963.15C516.331 962.325 515.206 961.475 513.256 961.475C509.881 961.475 507.531 964.225 507.531 967.475C507.531 970.925 509.981 973.45 513.256 973.45C515.031 973.45 516.181 972.675 516.681 971.875V972.775C516.681 975.15 515.506 976.2 513.406 976.2C511.831 976.2 510.756 975.225 510.531 973.875L507.531 974.675ZM513.831 970.6C512.106 970.6 510.881 969.4 510.881 967.475C510.881 965.575 512.181 964.375 513.831 964.375C515.431 964.375 516.731 965.575 516.731 967.475C516.731 969.375 515.531 970.6 513.831 970.6ZM544.776 974V956.275H541.326V968L533.951 956.275H529.651V974H533.101V961.425L541.151 974H544.776ZM547.643 970.65C547.643 972.575 549.243 974.35 551.868 974.35C553.693 974.35 554.868 973.5 555.493 972.525C555.493 973 555.543 973.675 555.618 974H558.668C558.593 973.575 558.518 972.7 558.518 972.05V966C558.518 963.525 557.068 961.325 553.168 961.325C549.868 961.325 548.093 963.45 547.893 965.375L550.843 966C550.943 964.925 551.743 964 553.193 964C554.593 964 555.268 964.725 555.268 965.6C555.268 966.025 555.043 966.375 554.343 966.475L551.318 966.925C549.268 967.225 547.643 968.45 547.643 970.65ZM552.568 971.875C551.493 971.875 550.968 971.175 550.968 970.45C550.968 969.5 551.643 969.025 552.493 968.9L555.268 968.475V969.025C555.268 971.2 553.968 971.875 552.568 971.875ZM565.145 974V966.8C565.145 965.45 565.995 964.375 567.445 964.375C568.945 964.375 569.62 965.375 569.62 966.7V974H572.92V966.8C572.92 965.475 573.77 964.375 575.195 964.375C576.72 964.375 577.37 965.375 577.37 966.7V974H580.595V966.025C580.595 962.725 578.42 961.35 576.145 961.35C574.52 961.35 573.22 961.9 572.245 963.4C571.62 962.075 570.27 961.35 568.595 961.35C567.245 961.35 565.67 962 564.995 963.2V961.7H561.82V974H565.145ZM586.466 966.45C586.541 965.325 587.491 964.025 589.216 964.025C591.116 964.025 591.916 965.225 591.966 966.45H586.466ZM592.291 969.65C591.891 970.75 591.041 971.525 589.491 971.525C587.841 971.525 586.466 970.35 586.391 968.725H595.191C595.191 968.675 595.241 968.175 595.241 967.7C595.241 963.75 592.966 961.325 589.166 961.325C586.016 961.325 583.116 963.875 583.116 967.8C583.116 971.95 586.091 974.375 589.466 974.375C592.491 974.375 594.441 972.6 595.066 970.475L592.291 969.65Z" fill="#503850"/>
<path d="M473.76 1002H475.88L470.24 987.82H467.98L462.34 1002H464.44L465.94 998.04H472.22L473.76 1002ZM469.06 989.86L471.52 996.22H466.64L469.06 989.86ZM483.079 992.28C482.979 992.26 482.719 992.22 482.459 992.22C481.479 992.22 480.279 992.58 479.579 994.06V992.38H477.739V1002H479.619V997.18C479.619 995.06 480.679 994.22 482.259 994.22C482.519 994.22 482.799 994.24 483.079 994.28V992.28ZM487.624 989.34H485.904V990.9C485.904 991.74 485.464 992.38 484.424 992.38H483.904V994.08H485.744V999.36C485.744 1001.1 486.784 1002.1 488.424 1002.1C489.064 1002.1 489.544 1001.98 489.704 1001.92V1000.32C489.544 1000.36 489.204 1000.4 488.964 1000.4C487.984 1000.4 487.624 999.96 487.624 999.08V994.08H489.704V992.38H487.624V989.34ZM493.798 1002V992.38H491.938V1002H493.798ZM491.518 988.74C491.518 989.48 492.118 990.08 492.858 990.08C493.618 990.08 494.218 989.48 494.218 988.74C494.218 987.98 493.618 987.38 492.858 987.38C492.118 987.38 491.518 987.98 491.518 988.74ZM496.08 999.5C496.24 1000.6 497.36 1002.3 500 1002.3C502.38 1002.3 503.52 1000.68 503.52 999.32C503.52 997.9 502.6 996.84 500.86 996.46L499.3 996.12C498.56 995.96 498.2 995.54 498.2 994.96C498.2 994.3 498.84 993.68 499.8 993.68C501.32 993.68 501.72 994.78 501.8 995.28L503.46 994.66C503.26 993.8 502.44 992.08 499.8 992.08C497.92 992.08 496.38 993.48 496.38 995.12C496.38 996.48 497.28 997.5 498.78 997.82L500.42 998.18C501.22 998.36 501.66 998.82 501.66 999.42C501.66 1000.1 501.08 1000.7 500.02 1000.7C498.66 1000.7 497.9 999.9 497.78 998.9L496.08 999.5ZM508.562 989.34H506.842V990.9C506.842 991.74 506.402 992.38 505.362 992.38H504.842V994.08H506.682V999.36C506.682 1001.1 507.722 1002.1 509.362 1002.1C510.002 1002.1 510.482 1001.98 510.642 1001.92V1000.32C510.482 1000.36 510.142 1000.4 509.902 1000.4C508.922 1000.4 508.562 999.96 508.562 999.08V994.08H510.642V992.38H508.562V989.34ZM519.795 996.44C519.795 994.98 520.555 993.8 522.035 993.8C523.715 993.8 524.275 994.88 524.275 996.22V1002H526.155V995.9C526.155 993.76 525.015 992.1 522.715 992.1C521.595 992.1 520.455 992.56 519.755 993.76V992.38H517.915V1002H519.795V996.44ZM528.446 999.42C528.446 1000.94 529.706 1002.3 531.666 1002.3C533.386 1002.3 534.346 1001.38 534.766 1000.7C534.766 1001.4 534.826 1001.76 534.866 1002H536.706C536.666 1001.76 536.586 1001.26 536.586 1000.42V995.6C536.586 993.72 535.466 992.08 532.586 992.08C530.506 992.08 528.846 993.36 528.646 995.2L530.446 995.62C530.566 994.5 531.306 993.68 532.626 993.68C534.086 993.68 534.706 994.46 534.706 995.4C534.706 995.74 534.546 996.04 533.966 996.12L531.366 996.5C529.706 996.74 528.446 997.7 528.446 999.42ZM531.926 1000.72C530.966 1000.72 530.366 1000.04 530.366 999.32C530.366 998.46 530.966 998 531.766 997.88L534.706 997.44V997.88C534.706 999.98 533.466 1000.72 531.926 1000.72ZM541.415 1002V996.2C541.415 994.76 542.315 993.76 543.655 993.76C545.095 993.76 545.695 994.72 545.695 995.96V1002H547.575V996.18C547.575 994.8 548.475 993.76 549.795 993.76C551.215 993.76 551.835 994.7 551.835 995.96V1002H553.695V995.76C553.695 993.24 552.055 992.1 550.375 992.1C549.155 992.1 547.915 992.54 547.155 993.92C546.635 992.68 545.475 992.1 544.275 992.1C543.155 992.1 541.955 992.6 541.355 993.66V992.38H539.555V1002H541.415ZM557.985 996.2C558.065 994.96 559.025 993.74 560.605 993.74C562.305 993.74 563.205 994.82 563.245 996.2H557.985ZM563.525 998.7C563.165 999.78 562.385 1000.64 560.825 1000.64C559.205 1000.64 557.965 999.44 557.925 997.72H565.165C565.185 997.6 565.205 997.36 565.205 997.12C565.205 994.12 563.545 992.08 560.585 992.08C558.165 992.08 555.985 994.14 555.985 997.16C555.985 1000.42 558.245 1002.3 560.825 1002.3C563.065 1002.3 564.605 1000.96 565.145 999.26L563.525 998.7Z" fill="#876789"/>
</g>
<defs>
<filter id="filter0_d" x="228" y="71" width="582.828" height="1008.99" filterUnits="userSpaceOnUse" color-interpolation-filters="sRGB">
<feFlood flood-opacity="0" result="BackgroundImageFix"/>
<feColorMatrix in="SourceAlpha" type="matrix" values="0 0 0 0 0 0 0 0 0 0 0 0 0 0 0 0 0 0 127 0"/>
<feOffset dx="-27" dy="18"/>
<feGaussianBlur stdDeviation="27"/>
<feColorMatrix type="matrix" values="0 0 0 0 0 0 0 0 0 0 0 0 0 0 0 0 0 0 0.1 0"/>
<feBlend mode="normal" in2="BackgroundImageFix" result="effect1_dropShadow"/>
<feBlend mode="normal" in="SourceGraphic" in2="effect1_dropShadow" result="shape"/>
</filter>
<filter id="filter1_d" x="814" y="-180" width="582.828" height="1008.99" filterUnits="userSpaceOnUse" color-interpolation-filters="sRGB">
<feFlood flood-opacity="0" result="BackgroundImageFix"/>
<feColorMatrix in="SourceAlpha" type="matrix" values="0 0 0 0 0 0 0 0 0 0 0 0 0 0 0 0 0 0 127 0"/>
<feOffset dx="-27" dy="18"/>
<feGaussianBlur stdDeviation="27"/>
<feColorMatrix type="matrix" values="0 0 0 0 0 0 0 0 0 0 0 0 0 0 0 0 0 0 0.1 0"/>
<feBlend mode="normal" in2="BackgroundImageFix" result="effect1_dropShadow"/>
<feBlend mode="normal" in="SourceGraphic" in2="effect1_dropShadow" result="shape"/>
</filter>
<filter id="filter2_d" x="242.746" y="71" width="582.828" height="1008.99" filterUnits="userSpaceOnUse" color-interpolation-filters="sRGB">
<feFlood flood-opacity="0" result="BackgroundImageFix"/>
<feColorMatrix in="SourceAlpha" type="matrix" values="0 0 0 0 0 0 0 0 0 0 0 0 0 0 0 0 0 0 127 0"/>
<feOffset dx="-27" dy="18"/>
<feGaussianBlur stdDeviation="27"/>
<feColorMatrix type="matrix" values="0 0 0 0 0 0 0 0 0 0 0 0 0 0 0 0 0 0 0.1 0"/>
<feBlend mode="normal" in2="BackgroundImageFix" result="effect1_dropShadow"/>
<feBlend mode="normal" in="SourceGraphic" in2="effect1_dropShadow" result="shape"/>
</filter>
<filter id="filter3_d" x="828.746" y="-180" width="582.828" height="1008.99" filterUnits="userSpaceOnUse" color-interpolation-filters="sRGB">
<feFlood flood-opacity="0" result="BackgroundImageFix"/>
<feColorMatrix in="SourceAlpha" type="matrix" values="0 0 0 0 0 0 0 0 0 0 0 0 0 0 0 0 0 0 127 0"/>
<feOffset dx="-27" dy="18"/>
<feGaussianBlur stdDeviation="27"/>
<feColorMatrix type="matrix" values="0 0 0 0 0 0 0 0 0 0 0 0 0 0 0 0 0 0 0.1 0"/>
<feBlend mode="normal" in2="BackgroundImageFix" result="effect1_dropShadow"/>
<feBlend mode="normal" in="SourceGraphic" in2="effect1_dropShadow" result="shape"/>
</filter>
<clipPath id="clip0">
<rect width="1695" height="979" fill="white"/>
</clipPath>
</defs>
</svg>
